<svg width="286" height="280" viewBox="0 0 286 280" fill="none" xmlns="http://www.w3.org/2000/svg">
<circle cx="140" cy="140" r="139" fill="#FFE42B" stroke="black" stroke-width="2"/>
<path d="M22 203.798L42.8471 190" stroke="black"/>
<path d="M236 192L257.541 204.688" stroke="black"/>
<path d="M140 5V17.5V30" stroke="black"/>
<path d="M24.8022 113.645C26.0888 114.08 27.0388 114.701 27.6523 115.509C28.2658 116.317 28.4973 117.249 28.3469 118.305C28.2023 119.32 27.7511 120.009 26.9934 120.373C26.232 120.73 25.2323 120.711 23.9943 120.317L22.2198 119.717C20.9591 119.291 20.0141 118.666 19.3846 117.844C18.7509 117.019 18.5082 116.086 18.6567 115.044C18.8045 114.006 19.2628 113.315 20.0316 112.969C20.7967 112.618 21.8148 112.65 23.0861 113.065L24.8022 113.645ZM22.9744 114.326C21.9771 113.988 21.2122 113.91 20.6798 114.089C20.1437 114.263 19.8255 114.701 19.7253 115.405C19.6282 116.086 19.8007 116.686 20.2427 117.204C20.6854 117.718 21.3857 118.139 22.3435 118.468L24.0338 119.039C24.9965 119.364 25.7552 119.439 26.3099 119.262C26.8652 119.081 27.1923 118.643 27.2913 117.948C27.3903 117.253 27.2304 116.66 26.8117 116.169C26.393 115.677 25.7032 115.262 24.7423 114.923L22.9744 114.326Z" fill="black"/>
<path d="M26.0193 108.714L29.6477 110.135L29.3646 111.353L20.0963 107.725L20.8142 104.635C21.0236 103.734 21.447 103.128 22.0844 102.815C22.7176 102.501 23.4627 102.512 24.32 102.848C25.2112 103.197 25.8414 103.712 26.2107 104.394C26.5767 105.07 26.6646 105.858 26.4742 106.757L26.0193 108.714ZM25.0199 108.323L25.4547 106.452C25.5806 105.91 25.5221 105.435 25.2794 105.025C25.0366 104.615 24.6267 104.297 24.0495 104.071C23.4936 103.854 23.0135 103.828 22.6091 103.994C22.2047 104.16 21.9422 104.503 21.8215 105.022L21.3852 106.9L25.0199 108.323Z" fill="black"/>
<path d="M28.8889 95.9496L27.8125 99.3015L31.0386 100.728L32.2927 96.8226L33.2742 97.2566L31.6377 102.353L22.5345 98.3283L24.1502 93.2972L25.138 93.7339L23.9049 97.574L26.8309 98.8676L27.9073 95.5156L28.8889 95.9496Z" fill="black"/>
<path d="M31.9415 89.7736L31.2688 91.3892L34.8784 93.1731L34.3948 94.3343L25.4719 89.9244L26.5441 87.3496C26.919 86.4493 27.4316 85.8808 28.0819 85.6442C28.7281 85.4055 29.4904 85.5033 30.3688 85.9374C30.9204 86.21 31.3499 86.5745 31.6575 87.0308C31.9627 87.481 32.1239 87.9868 32.1414 88.5484L36.6759 88.6436L36.7494 88.6799L36.2317 89.9231L31.9415 89.7736ZM30.3066 90.9136L30.89 89.5127C31.0915 89.0289 31.1006 88.5692 30.9174 88.1337C30.736 87.694 30.3919 87.3489 29.8853 87.0986C28.7414 86.5332 27.9469 86.7848 27.5019 87.8534L26.9238 89.2418L30.3066 90.9136Z" fill="black"/>
<path d="M37.9951 80.6354L36.4237 83.609L38.3363 85.5485L37.7358 86.6848L30.5227 79.0354L31.0241 78.0865L41.2364 80.0607L40.6359 81.1969L37.9951 80.6354ZM35.6317 82.7964L36.8997 80.397L32.3034 79.4106L35.6317 82.7964Z" fill="black"/>
<path d="M38.5386 67.947L37.1081 70.1398L44.6691 74.7834L43.9855 75.8311L36.4246 71.1875L34.9978 73.3746L34.0774 72.8094L37.6183 67.3818L38.5386 67.947Z" fill="black"/>
<path d="M48.9344 68.9444L48.1748 69.9383L39.8942 64.4158L40.6539 63.4219L48.9344 68.9444Z" fill="black"/>
<path d="M53.1228 57.85C54.2222 58.6474 54.8759 59.4772 55.0839 60.3393C55.292 61.2015 55.0405 62.0299 54.3295 62.8247C53.6459 63.5889 52.8173 63.9848 51.8437 64.0124C50.8695 64.0338 49.8473 63.6704 48.777 62.9222L47.2608 61.8225C46.1836 61.0412 45.5366 60.2107 45.3198 59.331C45.0994 58.4487 45.3401 57.6152 46.042 56.8306C46.7409 56.0494 47.5781 55.6542 48.5536 55.6449C49.5284 55.6295 50.5627 56.01 51.6564 56.7865L53.1228 57.85ZM50.8777 57.7589C50.0255 57.1409 49.2773 56.811 48.6332 56.7695C47.9885 56.7219 47.4291 56.963 46.9551 57.4929C46.4963 58.0058 46.3587 58.5472 46.5422 59.1171C46.7288 59.6837 47.2301 60.2657 48.046 60.8631L49.4903 61.9106C50.313 62.5073 51.0571 62.8314 51.7227 62.8829C52.3913 62.9311 52.9596 62.6936 53.4275 62.1705C53.8955 61.6474 54.0426 61.1158 53.8691 60.5754C53.6955 60.0351 53.2019 59.4615 52.3884 58.8546L50.8777 57.7589Z" fill="black"/>
<path d="M63.7542 53.4935L62.8327 54.3496L53.929 52.2646L59.9131 57.0623L58.9916 57.9185L51.2262 51.6925L52.1476 50.8363L61.088 52.9335L55.0773 48.1143L55.9888 47.2675L63.7542 53.4935Z" fill="black"/>
<path d="M68.1431 47.0123C67.7707 46.6836 67.3793 46.5144 66.969 46.5048C66.5588 46.4952 65.9829 46.6231 65.2413 46.8887C64.4998 47.1542 63.8791 47.3113 63.3794 47.3601C62.8797 47.4031 62.4247 47.3659 62.0142 47.2485C61.6039 47.1254 61.2279 46.913 60.8862 46.6115C60.295 46.0898 60.0148 45.499 60.0455 44.8391C60.0798 44.1765 60.433 43.5832 61.1053 43.0594C61.5654 42.7009 62.0743 42.469 62.6319 42.3638C63.1862 42.2555 63.7346 42.2796 64.2773 42.4359C64.8199 42.5922 65.2997 42.8543 65.7166 43.2222L64.7244 43.9953C64.2631 43.5882 63.7892 43.3641 63.3027 43.3231C62.8162 43.282 62.3537 43.4323 61.9151 43.7741C61.5161 44.085 61.3128 44.4194 61.3054 44.7772C61.298 45.1351 61.4856 45.4828 61.8683 45.8206C62.1827 46.098 62.5644 46.2377 63.0135 46.2398C63.4627 46.2419 64.019 46.1235 64.6825 45.8847C65.698 45.4966 66.5487 45.3305 67.2348 45.3863C67.9245 45.4394 68.5564 45.7193 69.1304 46.2259C69.7352 46.7596 70.0138 47.3489 69.966 47.9937C69.9148 48.6355 69.5333 49.2337 68.8215 49.7883C68.365 50.144 67.8487 50.3903 67.2725 50.5269C66.6965 50.6578 66.1262 50.6593 65.5616 50.5314C64.9972 50.3977 64.4929 50.1349 64.0487 49.7429L65.0409 48.9697C65.5022 49.3768 65.9958 49.5884 66.5216 49.6045C67.0511 49.6177 67.5495 49.4423 68.0168 49.0782C68.4518 48.7392 68.673 48.3908 68.6804 48.033C68.6879 47.6752 68.5088 47.3349 68.1431 47.0123Z" fill="black"/>
<path d="M192.135 32.2777L188.956 30.7648L186.656 33.4388L190.36 35.2015L189.66 36.0151L184.827 33.7148L191.317 26.1695L196.089 28.4403L195.384 29.2591L191.743 27.5259L189.656 29.9512L192.835 31.4641L192.135 32.2777Z" fill="black"/>
<path d="M198.429 40.7462L197.333 40.1287L199.083 32.5551L193.861 38.1722L192.765 37.5547L199.542 30.2656L200.638 30.8831L198.876 38.4883L204.122 32.8463L205.206 33.457L198.429 40.7462Z" fill="black"/>
<path d="M212.656 39.5726L210.475 38.1246L204.178 44.3759L203.136 43.684L209.433 37.4327L207.257 35.9884L208.024 35.2275L213.423 38.8117L212.656 39.5726Z" fill="black"/>
<path d="M214.48 46.9176L213.096 45.8468L210.133 48.5732L209.138 47.8037L216.463 41.064L218.669 42.7705C219.44 43.3672 219.836 43.9917 219.857 44.6441C219.881 45.2933 219.533 45.9497 218.812 46.6131C218.359 47.0297 217.856 47.3102 217.301 47.4546C216.752 47.5987 216.197 47.5975 215.633 47.4509L214.044 51.4956L213.983 51.5512L212.918 50.7272L214.48 46.9176ZM213.886 45.1201L215.086 46.0486C215.501 46.3693 215.955 46.5102 216.448 46.4715C216.945 46.4355 217.401 46.2262 217.817 45.8436C218.756 44.9795 218.768 44.1934 217.852 43.4851L216.663 42.565L213.886 45.1201Z" fill="black"/>
<path d="M223.306 53.6746L220.681 51.3277L218.002 53.6213L221.059 56.3555L220.244 57.0533L216.254 53.4852L223.816 47.0135L227.754 50.536L226.934 51.2383L223.927 48.5497L221.497 50.6299L224.121 52.9767L223.306 53.6746Z" fill="black"/>
<path d="M226.277 57.6006L223.229 60.0271L222.359 59.1277L230.147 52.9295L232.351 55.21C232.994 55.8751 233.282 56.5709 233.215 57.2972C233.151 58.0207 232.758 58.669 232.038 59.2423C231.289 59.8383 230.536 60.1162 229.778 60.076C229.026 60.0363 228.325 59.6928 227.674 59.0456L226.277 57.6006ZM227.117 56.9323L228.452 58.3134C228.839 58.7131 229.265 58.9159 229.731 58.9217C230.197 58.9275 230.673 58.7374 231.158 58.3514C231.625 57.9796 231.893 57.5719 231.963 57.1282C232.032 56.6844 231.882 56.2709 231.511 55.8875L230.171 54.5015L227.117 56.9323Z" fill="black"/>
<path d="M233.602 65.5987L232.485 64.251L229.245 66.6408L228.442 65.6721L236.453 59.7648L238.232 61.9126C238.854 62.6636 239.12 63.3836 239.029 64.0726C238.942 64.7589 238.504 65.3928 237.715 65.9743C237.22 66.3395 236.7 66.5534 236.155 66.616C235.617 66.6794 235.095 66.5888 234.592 66.3442L232.416 70.3402L232.35 70.3889L231.491 69.3518L233.602 65.5987ZM233.349 63.614L234.317 64.7827C234.651 65.1863 235.053 65.4073 235.522 65.4458C235.994 65.4878 236.458 65.3411 236.913 65.0057C237.94 64.2484 238.084 63.424 237.345 62.5326L236.386 61.3744L233.349 63.614Z" fill="black"/>
<path d="M240.516 73.9356L238.477 71.0652L235.566 73.0574L237.941 76.4015L237.056 77.0077L233.957 72.6436L242.17 67.0222L245.23 71.3306L244.338 71.9406L242.003 68.6521L239.363 70.459L241.401 73.3294L240.516 73.9356Z" fill="black"/>
<path d="M241.879 84.9961L241.233 83.9173L245.668 76.4017L239.184 80.4989L238.537 79.4201L246.951 74.1031L247.598 75.182L243.141 82.7276L249.654 78.612L250.293 79.6792L241.879 84.9961Z" fill="black"/>
<path d="M249.334 89.7095L247.763 86.5592L244.714 88.3329L246.545 92.0031L245.617 92.5428L243.227 87.7532L251.831 82.7483L254.19 87.4768L253.256 88.0199L251.456 84.4108L248.69 86.0195L250.262 89.1698L249.334 89.7095Z" fill="black"/>
<path d="M257.718 96.0032L251.48 99.342C250.645 99.7788 249.89 99.8742 249.216 99.6283C248.542 99.3823 248.022 98.8145 247.657 97.9249C247.284 97.0141 247.228 96.1958 247.488 95.4699C247.753 94.7419 248.31 94.1458 249.158 93.6814L255.396 90.3426L255.868 91.4937L249.673 94.8099C249.082 95.1261 248.694 95.4933 248.508 95.9117C248.327 96.3322 248.357 96.8355 248.598 97.4216C248.84 98.0119 249.159 98.3604 249.555 98.4669C249.958 98.5756 250.454 98.4718 251.045 98.1557L257.24 94.8395L257.718 96.0032Z" fill="black"/>
<path d="M254.392 104.704L253.852 103.039L250.234 104.806L249.845 103.61L258.789 99.2417L259.65 101.895C259.951 102.822 259.949 103.636 259.646 104.337C259.346 105.036 258.756 105.6 257.875 106.03C257.322 106.3 256.797 106.406 256.299 106.348C255.807 106.293 255.379 106.079 255.017 105.709L251.81 109.4L251.736 109.436L251.32 108.155L254.392 104.704ZM254.816 102.568L255.284 104.012C255.446 104.51 255.726 104.833 256.125 104.979C256.525 105.131 256.979 105.082 257.487 104.834C258.634 104.274 259.028 103.444 258.671 102.343L258.207 100.912L254.816 102.568Z" fill="black"/>
<path d="M255.705 115.518C256.159 115.317 256.475 115.032 256.653 114.664C256.831 114.296 256.951 113.72 257.013 112.937C257.075 112.154 257.187 111.525 257.348 111.052C257.515 110.58 257.736 110.183 258.012 109.86C258.294 109.539 258.643 109.286 259.06 109.101C259.781 108.782 260.437 108.774 261.028 109.076C261.621 109.383 262.018 109.95 262.221 110.778C262.36 111.345 262.362 111.903 262.229 112.453C262.1 113 261.852 113.488 261.486 113.915C261.119 114.342 260.682 114.668 260.173 114.894L259.874 113.672C260.437 113.423 260.837 113.086 261.075 112.662C261.313 112.238 261.366 111.755 261.233 111.215C261.113 110.724 260.891 110.401 260.566 110.245C260.242 110.089 259.846 110.115 259.38 110.321C258.996 110.491 258.711 110.779 258.524 111.186C258.337 111.592 258.217 112.146 258.162 112.848C258.099 113.93 257.901 114.771 257.567 115.37C257.235 115.974 256.718 116.431 256.018 116.741C255.281 117.067 254.627 117.075 254.056 116.763C253.49 116.449 253.099 115.855 252.885 114.978C252.747 114.416 252.734 113.845 252.846 113.265C252.964 112.689 253.197 112.171 253.547 111.712C253.902 111.255 254.35 110.907 254.892 110.667L255.191 111.889C254.628 112.138 254.231 112.498 254 112.968C253.77 113.443 253.725 113.968 253.866 114.544C253.997 115.079 254.225 115.425 254.549 115.58C254.874 115.736 255.259 115.715 255.705 115.518Z" fill="black"/>
<path d="M255.335 127.715L255.128 126.474L259.405 124.779L258.745 120.828L254.468 122.523L254.262 121.289L263.515 117.622L263.721 118.856L259.743 120.432L260.403 124.384L264.381 122.807L264.588 124.048L255.335 127.715Z" fill="black"/>
<path d="M255.725 132.555L255.595 131.311L264.968 127.962L265.098 129.206L255.725 132.555Z" fill="black"/>
<path d="M259.805 137.836L256.094 139.025L256.036 137.775L265.515 134.74L265.662 137.908C265.705 138.832 265.474 139.643 264.969 140.341C264.468 141.037 263.779 141.526 262.903 141.806C261.991 142.098 261.276 142.071 260.758 141.724C260.244 141.38 259.958 140.753 259.898 139.844L259.805 137.836ZM260.827 137.509L260.916 139.428C260.942 139.983 261.12 140.358 261.45 140.553C261.781 140.747 262.241 140.75 262.832 140.561C263.4 140.379 263.849 140.08 264.178 139.666C264.506 139.251 264.658 138.777 264.633 138.244L264.544 136.319L260.827 137.509Z" fill="black"/>
<path d="M162.556 257.54L165.831 256.777L165.369 252.406L166.587 252.122L167.634 262.02L162.588 263.196L162.474 262.122L166.302 261.23L165.944 257.844L162.669 258.608L162.556 257.54Z" fill="black"/>
<path d="M157.343 254.025L158.576 253.818L159.333 263.743L158.099 263.95L157.343 254.025Z" fill="black"/>
<path d="M146.179 255.342L147.431 255.22L151.737 262.496L151.398 254.833L152.65 254.711L153.09 264.655L151.838 264.777L147.517 257.468L147.858 265.165L146.619 265.285L146.179 255.342Z" fill="black"/>
<path d="M138.669 258.06L142.032 258.019L142.79 255.412L144.076 255.396L140.925 265.388L139.852 265.401L136.584 255.487L137.869 255.472L138.669 258.06ZM141.71 259.103L138.997 259.136L140.382 263.645L141.71 259.103Z" fill="black"/>
<path d="M127.452 254.806L128.707 254.897L132.427 262.853L132.681 255.188L133.936 255.279L133.606 265.227L132.351 265.135L128.618 257.144L128.363 264.844L127.122 264.753L127.452 254.806Z" fill="black"/>
<path d="M118.21 256.52C118.339 255.465 118.694 254.697 119.274 254.218C119.85 253.738 120.628 253.574 121.61 253.727C122.596 253.88 123.353 254.379 123.88 255.225C124.408 256.074 124.626 257.147 124.534 258.442L124.407 260.243C124.316 261.534 123.946 262.508 123.299 263.165C122.647 263.822 121.805 264.07 120.774 263.91C119.824 263.762 119.11 263.359 118.633 262.701C118.151 262.047 117.926 261.182 117.956 260.107L119.206 260.301C119.203 261.119 119.331 261.723 119.59 262.112C119.849 262.502 120.269 262.742 120.85 262.832C121.521 262.937 122.056 262.751 122.453 262.275C122.851 261.804 123.086 261.057 123.158 260.034L123.287 258.214C123.358 257.209 123.246 256.413 122.95 255.824C122.651 255.235 122.179 254.891 121.535 254.79C120.891 254.69 120.416 254.779 120.109 255.058C119.803 255.337 119.586 255.889 119.459 256.715L118.21 256.52Z" fill="black"/>
<path d="M110.851 256.213L114.279 257.012L114.65 253.504L110.656 252.573L110.769 251.506L115.982 252.721L114.935 262.619L109.788 261.419L109.902 260.345L113.83 261.261L114.166 258.079L110.738 257.28L110.851 256.213Z" fill="black"/>
</svg>
