<svg width="70" height="70" viewBox="0 0 70 70" fill="none" xmlns="http://www.w3.org/2000/svg">
<circle cx="35" cy="35" r="34" fill="#FFE42B" stroke="black" stroke-width="2"/>
<path d="M20.5967 40H19.3389V35.3994H15.333V40H14.082V30.0469H15.333V34.3262H19.3389V30.0469H20.5967V40ZM28.6973 30.0469V37.1221C28.6882 38.0654 28.4147 38.8037 27.877 39.3369C27.3392 39.8701 26.5895 40.1367 25.6279 40.1367C24.6436 40.1367 23.8916 39.877 23.3721 39.3574C22.8525 38.8333 22.5882 38.0882 22.5791 37.1221V30.0469H23.8232V37.0742C23.8232 37.7441 23.9645 38.2454 24.2471 38.5781C24.5342 38.9062 24.9945 39.0703 25.6279 39.0703C26.266 39.0703 26.7262 38.9062 27.0088 38.5781C27.2959 38.2454 27.4395 37.7441 27.4395 37.0742V30.0469H28.6973ZM32.2383 30.0469L34.8359 38.168L37.4336 30.0469H39.0469V40H37.7959V36.124L37.9121 32.2412L35.3076 40H34.3506L31.7598 32.2686L31.876 36.124V40H30.625V30.0469H32.2383ZM45.9717 37.4023H42.6084L41.8359 40H40.5508L43.7568 30.0469H44.8301L48.043 40H46.7578L45.9717 37.4023ZM42.9365 36.3223H45.6504L44.29 31.7969L42.9365 36.3223ZM55.8975 40H54.6396L50.6543 32.3301V40H49.3965V30.0469H50.6543L54.6533 37.751V30.0469H55.8975V40Z" fill="black"/>
</svg>
