<?xml version="1.0" ?><svg enable-background="new 0 0 32 32" version="1.1" viewBox="0 0 32 32" xml:space="preserve" xmlns="http://www.w3.org/2000/svg" xmlns:xlink="http://www.w3.org/1999/xlink"><g id="Style_2_copy_3"><g><path d="M16,5.618c-3.297,0.018-5.425,2.231-5.425,5.576c0,2.769,1.807,5.138,2.836,8.738    c0.589,2.062,0.907,4.586,1.073,6.449h3.031c0.166-1.864,0.483-4.387,1.073-6.449c1.03-3.601,2.836-5.969,2.836-8.738    C21.425,7.849,19.297,5.637,16,5.618z M16.017,14.141c-1.37,0-2.481-1.111-2.481-2.481s1.111-2.481,2.481-2.481    c1.37,0,2.481,1.111,2.481,2.481S17.388,14.141,16.017,14.141z" fill="black"/></g></g></svg>