<svg width="140" height="140" viewBox="0 0 140 140" fill="none" xmlns="http://www.w3.org/2000/svg">
<circle cx="70" cy="70" r="69" fill="#FFE42B" stroke="black" stroke-width="2"/>
<path d="M104 70C104 88.7777 88.7777 104 70 104C51.2223 104 36 88.7777 36 70C36 51.2223 51.2223 36 70 36C88.7777 36 104 51.2223 104 70Z" fill="#FFE42B" stroke="black" stroke-width="2"/>
<path d="M70 6V31" stroke="black"/>
<path d="M13.5764 99.1494L34.4236 85.351" stroke="black"/>
<path d="M105 86L126.541 98.6885" stroke="black"/>
<path d="M107.89 116.142L110.259 115.027L108.378 106.356L109.509 105.823L111.391 114.494L113.754 113.382L113.983 114.438L108.119 117.197L107.89 116.142Z" fill="black"/>
<path d="M99.1937 114.963L102.498 113.747L101.908 110.27L98.0583 111.686L97.8788 110.628L102.902 108.78L104.567 118.592L99.6079 120.417L99.4272 119.352L103.212 117.96L102.677 114.805L99.3732 116.021L99.1937 114.963Z" fill="black"/>
<path d="M89.4018 116.276C89.3235 115.204 89.5137 114.316 89.9724 113.614C90.4267 112.912 91.1336 112.433 92.0931 112.175C93.057 111.916 93.8693 112.086 94.53 112.684C95.1913 113.287 95.6018 114.233 95.7615 115.522L95.9833 117.313C96.1424 118.597 95.9777 119.69 95.4891 120.593C94.9962 121.496 94.2458 122.083 93.2379 122.354C92.3092 122.603 91.5562 122.509 90.9789 122.071C90.3978 121.638 90.0194 120.896 89.8438 119.845L91.0651 119.517C91.2176 120.308 91.4538 120.838 91.7737 121.107C92.0935 121.376 92.5374 121.435 93.1051 121.282C93.7609 121.106 94.2321 120.706 94.5187 120.082C94.8058 119.463 94.8863 118.645 94.7603 117.627L94.5359 115.816C94.4121 114.816 94.1543 114.093 93.7625 113.647C93.3663 113.202 92.8535 113.064 92.2242 113.233C91.5948 113.402 91.1613 113.685 90.9238 114.08C90.6863 114.476 90.5861 115.098 90.6231 115.948L89.4018 116.276Z" fill="black"/>
<path d="M79.9808 114.702L81.222 114.498L81.5687 119.086L85.5218 118.438L85.1751 113.851L86.4097 113.648L87.1596 123.573L85.9251 123.775L85.6027 119.508L81.6495 120.156L81.972 124.423L80.7307 124.627L79.9808 114.702Z" fill="black"/>
<path d="M70.5359 115.302L71.7917 115.231L75.972 122.672L75.7706 115.004L77.0264 114.933L77.2877 124.882L76.032 124.954L71.8371 117.48L72.0394 125.181L70.7973 125.252L70.5359 115.302Z" fill="black"/>
<path d="M61.051 118.962C61.0819 117.604 61.3947 116.573 61.9895 115.868C62.5843 115.163 63.4142 114.836 64.4793 114.889C65.5035 114.94 66.3056 115.335 66.8857 116.075C67.4611 116.82 67.7454 117.844 67.7385 119.148L67.6959 121.021C67.6656 122.351 67.3483 123.378 66.744 124.101C66.1396 124.828 65.3117 125.166 64.2603 125.114C63.2134 125.062 62.4068 124.66 61.8407 123.906C61.2699 123.158 60.9929 122.113 61.0098 120.773L61.051 118.962ZM62.2608 120.766C62.2368 121.819 62.392 122.609 62.7263 123.136C63.056 123.668 63.5759 123.951 64.2859 123.986C64.9732 124.02 65.5003 123.786 65.8672 123.284C66.2295 122.782 66.4244 122.025 66.452 121.014L66.4926 119.23C66.5157 118.214 66.3581 117.431 66.0198 116.881C65.6769 116.33 65.1549 116.038 64.454 116.003C63.753 115.968 63.2285 116.189 62.8805 116.664C62.5324 117.14 62.34 117.885 62.3032 118.9L62.2608 120.766Z" fill="black"/>
<path d="M56.8912 115.268L53.0302 114.695L53.1035 113.624L58.2087 114.382L57.5286 124.312L56.2844 124.128L56.8912 115.268Z" fill="black"/>
<path d="M43.4702 115.408C43.6252 114.059 44.0253 113.09 44.6706 112.501C45.316 111.911 46.156 111.746 47.1908 112.003C48.1858 112.251 48.9324 112.8 49.4306 113.651C49.9239 114.505 50.1072 115.582 49.9806 116.883L49.7669 118.743C49.6151 120.065 49.2111 121.029 48.5548 121.634C47.8981 122.243 47.0589 122.421 46.0374 122.167C45.0202 121.913 44.27 121.356 43.7866 120.495C43.2983 119.638 43.1239 118.542 43.2635 117.208L43.4702 115.408ZM44.4852 117.442C44.3651 118.488 44.444 119.306 44.7219 119.897C44.9948 120.491 45.4762 120.874 46.166 121.046C46.8338 121.212 47.3698 121.08 47.774 120.65C48.1738 120.219 48.4336 119.501 48.5534 118.497L48.757 116.725C48.8729 115.715 48.7911 114.903 48.5114 114.288C48.2273 113.673 47.7447 113.28 47.0637 113.11C46.3827 112.941 45.8505 113.06 45.4671 113.467C45.0837 113.875 44.8274 114.582 44.6982 115.588L44.4852 117.442Z" fill="black"/>
<path d="M34.944 109.32L35.1946 109.124C35.9064 108.613 36.8327 108.563 37.9733 108.974C38.9853 109.338 39.7225 109.975 40.185 110.885C40.6425 111.797 40.7709 112.899 40.5704 114.189L40.2503 116.118C40.022 117.494 39.5896 118.429 38.9531 118.924C38.3115 119.422 37.4675 119.483 36.4212 119.106C35.5293 118.785 34.8758 118.274 34.4606 117.572C34.0412 116.868 33.886 116.024 33.9949 115.039L35.172 115.462C35.1177 116.091 35.2015 116.626 35.4236 117.068C35.6406 117.513 36.0299 117.836 36.5916 118.039C37.2649 118.281 37.7964 118.227 38.1863 117.876C38.5754 117.53 38.8604 116.854 39.0411 115.847L39.3735 113.844C39.5376 112.855 39.4836 112.031 39.2115 111.37C38.9386 110.715 38.4655 110.266 37.7923 110.024C37.1577 109.795 36.6484 109.783 36.2645 109.988L36.0628 110.094L35.6868 112.36L37.3977 112.976L37.2231 114.028L34.3351 112.989L34.944 109.32Z" fill="black"/>
<path d="M28.5652 110.255L25.6623 114.271L24.3819 113.668L28.2661 108.774L29.0532 105.147L30.1851 105.679L29.398 109.307L30.6353 116.611L29.3488 116.005L28.5652 110.255Z" fill="black"/>
<path d="M87.6317 24.1858L85.3699 27.3587L84.1878 26.9495L89.9651 18.8448L92.9625 19.8821C93.8368 20.1847 94.3623 20.6488 94.5392 21.2744C94.7187 21.8963 94.5412 22.5821 94.0069 23.3317C93.4514 24.111 92.7838 24.6295 92.0042 24.8871C91.2316 25.1425 90.4071 25.1278 89.5309 24.8431L87.6317 24.1858ZM88.2546 23.3118L90.0699 23.9401C90.5953 24.1219 91.0945 24.1258 91.5676 23.9518C92.0406 23.7778 92.457 23.4384 92.8168 22.9337C93.1633 22.4476 93.2968 22.008 93.2172 21.615C93.1376 21.2219 92.8459 20.9382 92.342 20.7638L90.5203 20.1334L88.2546 23.3118Z" fill="black"/>
<path d="M98.7705 28.8892L97.2624 28.0015L94.5359 30.9643L93.452 30.3262L100.192 23.0023L102.595 24.4171C103.436 24.9118 103.899 25.4741 103.986 26.104C104.075 26.7306 103.788 27.4043 103.125 28.1253C102.708 28.578 102.226 28.9044 101.679 29.1044C101.138 29.3033 100.575 29.3623 99.99 29.2814L98.786 33.3729L98.7304 33.4333L97.5699 32.7502L98.7705 28.8892ZM97.9891 27.2118L99.297 27.9816C99.7486 28.2475 100.222 28.3349 100.718 28.244C101.217 28.1553 101.658 27.9031 102.041 27.4873C102.905 26.5483 102.838 25.7852 101.84 25.198L100.544 24.4351L97.9891 27.2118Z" fill="black"/>
<path d="M109.179 37.146C108.144 38.0252 107.137 38.5034 106.157 38.5806C105.178 38.6578 104.301 38.3299 103.526 37.5969C102.781 36.8921 102.463 36.1044 102.571 35.2338C102.686 34.3634 103.232 33.4985 104.209 32.639L105.636 31.4264C106.651 30.5649 107.658 30.0928 108.658 30.0101C109.662 29.9244 110.546 30.2433 111.31 30.9669C112.072 31.6874 112.388 32.4826 112.259 33.3526C112.138 34.2229 111.571 35.0964 110.56 35.9732L109.179 37.146ZM109.599 35.1576C110.402 34.4761 110.871 33.8511 111.009 33.2826C111.153 32.7143 110.967 32.1858 110.451 31.6971C109.951 31.2241 109.374 31.0337 108.72 31.1257C108.069 31.2208 107.356 31.5943 106.582 32.2462L105.222 33.4012C104.447 34.0591 103.984 34.6813 103.833 35.2677C103.685 35.8572 103.865 36.3931 104.375 36.8755C104.885 37.3579 105.45 37.5557 106.07 37.4688C106.69 37.382 107.392 37.0143 108.177 36.3658L109.599 35.1576Z" fill="black"/>
<path d="M114.019 45.9605C113.1 46.5031 112.256 46.701 111.487 46.5541C110.721 46.4111 110.067 45.9229 109.526 45.0895C108.983 44.2524 108.866 43.3785 109.177 42.4679C109.492 41.5547 110.191 40.7398 111.274 40.023L112.779 39.0271C113.858 38.3128 114.875 38.0005 115.83 38.0902C116.787 38.1836 117.549 38.668 118.118 39.5434C118.641 40.35 118.804 41.1328 118.607 41.8918C118.416 42.6522 117.886 43.3469 117.018 43.9762L116.329 42.9154C116.976 42.4218 117.366 41.9591 117.498 41.5271C117.631 41.0952 117.537 40.6326 117.217 40.1395C116.847 39.5699 116.341 39.2793 115.698 39.2678C115.058 39.2537 114.311 39.5296 113.456 40.0954L111.934 41.1027C111.094 41.6585 110.542 42.2262 110.277 42.8059C110.014 43.3893 110.061 43.9544 110.415 44.501C110.77 45.0477 111.161 45.3521 111.587 45.4144C112.013 45.4767 112.594 45.3051 113.331 44.8997L114.019 45.9605Z" fill="black"/>
<path d="M118.001 52.7403L116.772 49.4413L113.633 51.0505L115.065 54.894L114.11 55.3837L112.241 50.3678L121.099 45.8271L122.943 50.7789L121.982 51.2717L120.574 47.4922L117.727 48.9517L118.956 52.2507L118.001 52.7403Z" fill="black"/>
<path d="M117.424 61.9242C117.889 61.7493 118.225 61.4823 118.433 61.1232C118.641 60.7642 118.81 60.1935 118.941 59.4111C119.072 58.6286 119.238 58.0045 119.439 57.5386C119.645 57.0755 119.898 56.6898 120.199 56.3815C120.505 56.076 120.871 55.843 121.297 55.6825C122.035 55.4048 122.682 55.4353 123.237 55.7738C123.792 56.1169 124.133 56.7099 124.259 57.5528C124.345 58.1298 124.298 58.6902 124.118 59.234C123.942 59.7762 123.654 60.2509 123.256 60.658C122.857 61.0651 122.397 61.3666 121.877 61.5624L121.691 60.3184C122.267 60.1017 122.691 59.7875 122.963 59.3757C123.235 58.964 123.33 58.4831 123.248 57.9332C123.173 57.4329 122.983 57.095 122.678 56.9196C122.372 56.7441 121.981 56.7463 121.503 56.9261C121.111 57.0737 120.804 57.346 120.584 57.7431C120.364 58.1401 120.196 58.6889 120.08 59.3896C119.921 60.4726 119.651 61.305 119.27 61.8866C118.889 62.4727 118.34 62.9006 117.623 63.1702C116.868 63.4543 116.224 63.423 115.69 63.0764C115.161 62.7282 114.83 62.1078 114.696 61.2154C114.611 60.6429 114.649 60.0692 114.811 59.4941C114.978 58.9219 115.254 58.4158 115.639 57.9759C116.029 57.5388 116.501 57.2159 117.055 57.0073L117.241 58.2513C116.665 58.468 116.243 58.8056 115.973 59.264C115.704 59.727 115.614 60.2514 115.701 60.8374C115.782 61.3828 115.976 61.7432 116.281 61.9186C116.587 62.0941 116.967 62.0959 117.424 61.9242Z" fill="black"/>
<path d="M117.08 71.774C117.563 71.6582 117.94 71.4352 118.211 71.1051C118.481 70.7749 118.756 70.2302 119.036 69.4708C119.315 68.7115 119.597 68.1133 119.882 67.6763C120.171 67.2429 120.491 66.8919 120.842 66.6235C121.197 66.3586 121.596 66.173 122.039 66.0667C122.806 65.8829 123.424 65.9932 123.893 66.3976C124.363 66.8066 124.576 67.4366 124.533 68.2877C124.503 68.8703 124.348 69.42 124.068 69.9368C123.792 70.4525 123.422 70.8874 122.958 71.2415C122.493 71.5957 121.991 71.8376 121.45 71.9672L121.514 70.711C122.112 70.5676 122.583 70.3086 122.926 69.9342C123.269 69.5597 123.454 69.0948 123.483 68.5395C123.508 68.0343 123.391 67.6759 123.13 67.4641C122.869 67.2523 122.491 67.2059 121.995 67.3249C121.587 67.4227 121.238 67.6547 120.948 68.021C120.658 68.3872 120.388 68.9105 120.139 69.5906C119.775 70.6446 119.352 71.4362 118.869 71.9654C118.387 72.4992 117.774 72.8554 117.029 73.0339C116.245 73.2219 115.629 73.1111 115.181 72.7014C114.738 72.2906 114.539 71.6346 114.585 70.7334C114.614 70.1554 114.763 69.5914 115.032 69.0414C115.305 68.4949 115.67 68.0274 116.128 67.639C116.59 67.254 117.108 66.9925 117.685 66.8544L117.621 68.1106C117.022 68.254 116.548 68.5362 116.199 68.9573C115.849 69.3829 115.659 69.8915 115.629 70.4832C115.601 71.0339 115.717 71.4152 115.978 71.6269C116.238 71.8387 116.606 71.8877 117.08 71.774Z" fill="black"/>
<path d="M25.5526 68.0901L15.727 66.5016L15.989 64.1441C16.1173 62.9891 16.5769 62.1504 17.3677 61.6282C18.1539 61.1052 19.1972 60.9488 20.4974 61.159L22.1439 61.4252C23.4441 61.6354 24.4136 62.1218 25.0525 62.8844C25.6868 63.6463 25.9356 64.6433 25.7987 65.8753L25.5526 68.0901ZM16.9314 65.4307L24.6313 66.6755L24.7422 65.6768C24.8394 64.8026 24.6629 64.124 24.2128 63.6408C23.7582 63.157 23.0433 62.8316 22.068 62.6647L20.327 62.3832C19.2922 62.216 18.5118 62.295 17.9856 62.6202C17.4554 62.9403 17.1453 63.5057 17.0552 64.3165L16.9314 65.4307Z" fill="black"/>
<path d="M23.8204 53.3494L22.861 56.7367L26.2227 57.8049L27.3404 53.8586L28.3633 54.1836L26.9046 59.3336L17.4189 56.3193L18.8589 51.2351L19.8883 51.5622L18.7892 55.4428L21.8381 56.4117L22.7976 53.0244L23.8204 53.3494Z" fill="black"/>
<path d="M29.0547 46.6267C28.6082 46.409 28.2086 46.3637 27.8557 46.4907C27.5028 46.6178 27.0633 46.9434 26.5371 47.4676C26.0109 47.9918 25.5448 48.3627 25.1388 48.5805C24.7307 48.7921 24.3289 48.9055 23.9333 48.9205C23.5357 48.9293 23.132 48.8339 22.7224 48.6342C22.0138 48.2886 21.5424 47.7672 21.3083 47.07C21.0762 46.3687 21.1429 45.6331 21.5082 44.8632C21.7584 44.3362 22.0999 43.9248 22.5329 43.6289C22.9617 43.331 23.4378 43.1728 23.9612 43.1542C24.4845 43.1357 24.996 43.2482 25.4958 43.4919L24.9565 44.6282C24.4035 44.3586 23.9119 44.2836 23.4818 44.4034C23.0517 44.5233 22.7174 44.8343 22.479 45.3366C22.2622 45.7936 22.2211 46.2096 22.3559 46.5846C22.4907 46.9596 22.7874 47.2589 23.2462 47.4827C23.6231 47.6664 24.0029 47.6844 24.3859 47.5365C24.7688 47.3886 25.1954 47.0795 25.6658 46.6092C26.3767 45.8658 27.0351 45.4086 27.6408 45.2376C28.2486 45.0624 28.8965 45.1427 29.5847 45.4782C30.3097 45.8318 30.779 46.3522 30.9926 47.0394C31.2021 47.7246 31.1134 48.4748 30.7265 49.29C30.4784 49.8129 30.1361 50.2417 29.6998 50.5765C29.2613 50.9052 28.7767 51.0973 28.246 51.1528C27.7131 51.2022 27.1804 51.097 26.6479 50.8374L27.1871 49.701C27.7401 49.9707 28.2435 50.026 28.6973 49.8671C29.153 49.704 29.5078 49.3548 29.7619 48.8196C29.9983 48.3214 30.0491 47.8848 29.9143 47.5098C29.7796 47.1348 29.493 46.8405 29.0547 46.6267Z" fill="black"/>
<path d="M34.4136 42.7914L33.7169 43.8304L25.4015 38.3607L26.0982 37.3216L34.4136 42.7914Z" fill="black"/>
<path d="M40.5228 33.716L40.5809 34.0563C40.7082 35.0005 40.3612 35.9183 39.5397 36.8098C38.8109 37.6007 37.9699 37.9891 37.0167 37.9748C36.0631 37.9542 35.0901 37.5212 34.0976 36.6757L32.6227 35.3923C31.5707 34.4768 30.9718 33.5873 30.826 32.7237C30.6798 31.8538 30.9835 31.01 31.737 30.1922C32.3793 29.4951 33.0805 29.124 33.8407 29.0789C34.6039 29.0305 35.3736 29.3077 36.1498 29.9107L35.3021 30.8307C34.8006 30.4607 34.3188 30.2709 33.8568 30.2614C33.3944 30.2456 32.9609 30.4571 32.5564 30.8962C32.0716 31.4224 31.8935 31.9618 32.0221 32.5146C32.1474 33.0644 32.5921 33.6809 33.3564 34.3641L34.888 35.6968C35.6443 36.355 36.3551 36.7198 37.0201 36.7913C37.6818 36.8597 38.255 36.6309 38.7399 36.1047C39.1969 35.6087 39.4206 35.124 39.4108 34.6505L39.407 34.4026L37.6743 32.8949L36.4421 34.2321L35.6376 33.5321L37.7175 31.2749L40.5228 33.716Z" fill="black"/>
<path d="M49.2559 28.6515L48.2477 29.4035L40.1719 25.8699L45.053 31.7862L44.0447 32.5382L37.7106 24.8607L38.7189 24.1087L46.8274 27.6605L41.9245 21.7179L42.9218 20.9741L49.2559 28.6515Z" fill="black"/>
</svg>
