<svg width="37" height="14" viewBox="0 0 37 14" fill="#FFEE2C" xmlns="http://www.w3.org/2000/svg">
<path fill-rule="evenodd" clip-rule="evenodd" d="M4.08129 13.9944C2.97879 13.9479 2.07691 13.6277 1.37165 13.0328C1.23701 12.9192 0.916344 12.5784 0.808736 12.4347C0.522704 12.0529 0.32835 11.6813 0.198644 11.2691C-0.200443 10 0.00501043 8.33467 0.786124 6.50705C1.455 4.9424 2.487 3.39052 4.28757 1.24122C4.55284 0.924995 5.34259 0 5.34773 0C5.34958 0 5.30661 0.0792191 5.25235 0.175571C4.78419 1.00814 4.38357 1.98879 4.16537 2.83773C3.81479 4.19996 3.85713 5.36905 4.28921 6.2755C4.58727 6.89998 5.09828 7.44099 5.67292 7.73998C6.67891 8.26331 8.15172 8.30652 9.95034 7.86666C10.0742 7.83622 16.2106 6.1068 23.5867 4.02341C30.9629 1.93979 36.9991 0.23646 37 0.237879C37.0021 0.239734 19.863 8.02597 10.9658 12.0655C9.5568 12.7051 9.18001 12.8666 8.51751 13.1135C6.82424 13.7449 5.30733 14.046 4.08129 13.9943V13.9944Z" fill="black"/>
</svg>
