<svg width="210" height="210" viewBox="0 0 210 210" fill="none" xmlns="http://www.w3.org/2000/svg">
<circle cx="105" cy="105" r="104" fill="#FFE42B" stroke="black" stroke-width="2"/>
<path d="M180 106L191.5 106L203 106" stroke="black"/>
<path d="M6 106L29 106" stroke="black"/>
<path d="M152.84 186.374L148.639 179.438L148.031 188.341L146.538 188.952L144.336 179.246L145.494 178.772L146.352 182.552L147.103 186.382L147.797 177.83L148.683 177.467L152.791 184.026L151.831 180.31L150.973 176.53L152.131 176.057L154.333 185.763L152.84 186.374Z" fill="black"/>
<path d="M136.775 184.403L139.991 183.421L140.296 180.634L141.526 180.259L140.121 191.008L139.094 191.322L134.36 182.447L135.589 182.071L136.775 184.403ZM139.858 184.582L137.262 185.374L139.318 189.439L139.858 184.582Z" fill="black"/>
<path d="M124.308 184.729L125.539 184.468L130.332 191.261L129.438 183.643L130.669 183.383L131.828 193.268L130.598 193.529L125.788 186.705L126.685 194.356L125.468 194.614L124.308 184.729Z" fill="black"/>
<path d="M115.996 188.477L119.336 188.077L119.931 185.393L121.207 185.24L118.683 195.553L117.617 195.68L113.768 186.131L115.044 185.978L115.996 188.477ZM119.081 189.194L116.387 189.516L118.037 193.87L119.081 189.194Z" fill="black"/>
<path d="M103.918 187.745L104.133 187.465C104.749 186.713 105.664 186.32 106.875 186.285C107.951 186.253 108.801 186.584 109.428 187.277C110.05 187.975 110.378 188.975 110.413 190.278L110.444 192.233C110.467 193.627 110.206 194.679 109.661 195.387C109.112 196.101 108.282 196.474 107.17 196.506C106.223 196.534 105.478 196.291 104.937 195.778C104.39 195.265 104.082 194.519 104.012 193.541L105.262 193.505C105.322 194.123 105.503 194.601 105.805 194.939C106.102 195.281 106.549 195.444 107.146 195.426C107.861 195.406 108.381 195.156 108.706 194.677C109.031 194.202 109.192 193.452 109.189 192.427L109.157 190.397C109.141 189.394 108.937 188.63 108.545 188.103C108.154 187.581 107.601 187.33 106.886 187.351C106.212 187.371 105.702 187.55 105.356 187.888L105.175 188.064L105.212 190.361L107.029 190.308L107.046 191.374L103.978 191.463L103.918 187.745Z" fill="black"/>
<path d="M94.8806 190.687L98.3958 190.88L98.5032 187.354L94.4078 187.129L94.4404 186.057L99.7849 186.35L99.482 196.299L94.2058 196.009L94.2387 194.929L98.2658 195.15L98.3632 191.953L94.848 191.76L94.8806 190.687Z" fill="black"/>
<path d="M88.5626 195.331L86.6467 186.861L83.4217 194.581L81.8253 194.348L82.6275 184.427L83.8654 184.608L83.553 188.471L83.125 192.325L86.3276 184.967L87.2746 185.105L89.2152 193.185L89.4109 189.326L89.7233 185.462L90.9612 185.643L90.159 195.564L88.5626 195.331Z" fill="black"/>
<path d="M74.0107 187.007L77.4354 187.822L77.8971 184.325L73.9071 183.375L74.0476 182.311L79.2545 183.551L77.9518 193.418L72.8114 192.194L72.9527 191.124L76.8762 192.058L77.2949 188.886L73.8702 188.071L74.0107 187.007Z" fill="black"/>
<path d="M64.4143 179.187L65.6102 179.576L68.0363 188.359L69.3996 180.811L70.5955 181.2L68.8264 190.995L67.6305 190.605L65.1975 181.785L63.8281 189.367L62.6452 188.981L64.4143 179.187Z" fill="black"/>
<path d="M53.2671 183.972L55.6812 184.985L57.6921 176.343L58.8456 176.827L56.8348 185.469L59.2426 186.48L58.9978 187.532L53.0223 185.024L53.2671 183.972Z" fill="black"/>
<path d="M57.6752 36.1248C57.8987 37.1857 57.8508 38.1354 57.5313 38.9741C57.2157 39.8103 56.6378 40.4935 55.7977 41.0239C54.9537 41.5566 54.1875 41.6139 53.499 41.1959C52.8093 40.7734 52.3001 39.9338 51.9715 38.6773L51.515 36.9313C51.1875 35.6791 51.183 34.5287 51.5015 33.4801C51.8238 32.4291 52.4262 31.625 53.3087 31.068C54.1218 30.5547 54.8232 30.4381 55.4128 30.7183C56.0051 30.9917 56.456 31.6342 56.7655 32.646L55.696 33.3211C55.4446 32.5655 55.1536 32.0968 54.8232 31.9149C54.4928 31.7331 54.079 31.7991 53.5819 32.1129C53.0077 32.4754 52.6339 33.0118 52.4605 33.7223C52.286 34.4284 52.3284 35.2774 52.5878 36.2694L53.0496 38.0353C53.3044 39.0097 53.6424 39.667 54.0636 40.0072C54.4887 40.345 54.9768 40.34 55.5279 39.9921C56.079 39.6443 56.435 39.2372 56.5959 38.7709C56.7568 38.3046 56.7601 37.6476 56.6058 36.7998L57.6752 36.1248Z" fill="black"/>
<path d="M65.7972 30.741C66.0809 32.0692 66.0421 33.2246 65.6809 34.2074C65.3197 35.1901 64.6652 35.9258 63.7173 36.4145C62.8059 36.8843 62.0107 36.9084 61.3315 36.4867C60.6555 36.0585 60.1713 35.2123 59.8788 33.9481L59.4876 32.1164C59.2096 30.815 59.2534 29.6619 59.6189 28.6571C59.9834 27.6479 60.6335 26.9021 61.5693 26.4197C62.5009 25.9394 63.3017 25.9199 63.9715 26.3613C64.6444 26.796 65.1269 27.6654 65.4189 28.9695L65.7972 30.741ZM64.3212 29.6096C64.1014 28.58 63.7842 27.8951 63.3697 27.5546C62.9584 27.2076 62.4367 27.197 61.8048 27.5228C61.1932 27.8381 60.7836 28.3313 60.5762 29.0022C60.3728 29.6711 60.3747 30.5013 60.582 31.4928L60.9546 33.2376C61.1669 34.2315 61.4847 34.9087 61.9079 35.2694C62.3352 35.6279 62.8608 35.6464 63.4846 35.3248C64.1084 35.0032 64.5188 34.5245 64.7157 33.8886C64.9127 33.2527 64.9111 32.4347 64.711 31.4346L64.3212 29.6096Z" fill="black"/>
<path d="M69.3071 23.0229L73.029 30.0891L74.1429 21.1239L75.6445 20.5342L77.2427 30.3581L76.0783 30.8154L75.456 26.9897L74.9406 23.1148L73.7622 31.7249L72.8714 32.0748L69.2184 25.3907L69.9457 29.1536L70.5681 32.9793L69.4037 33.4366L67.8055 23.6126L69.3071 23.0229Z" fill="black"/>
<path d="M79.8103 19.4213L83.2116 26.8243L84.8303 18.0832L86.3892 17.6677L87.4815 27.5607L86.2728 27.8829L85.8474 24.0303L85.5335 20.141L83.8684 28.5237L82.9437 28.7702L79.5917 21.7528L80.1272 25.555L80.5526 29.4076L79.3438 29.7298L78.2514 19.8368L79.8103 19.4213Z" fill="black"/>
<path d="M94.6756 16.4658L95.1293 23.5264C95.1808 24.4692 94.9579 25.2479 94.4607 25.8624C93.9635 26.477 93.2398 26.858 92.2896 27.0054C91.3168 27.1563 90.5571 27.0123 90.0104 26.5735C89.4634 26.1301 89.1544 25.427 89.0834 24.4643L88.6297 17.4036L89.8591 17.2129L90.3098 24.2258C90.3528 24.8943 90.5245 25.373 90.8251 25.6616C91.1298 25.9451 91.5952 26.0382 92.2212 25.9411C92.8517 25.8433 93.296 25.6091 93.5542 25.2383C93.8165 24.8623 93.9262 24.34 93.8833 23.6715L93.4326 16.6586L94.6756 16.4658Z" fill="black"/>
<path d="M104.211 25.9031L102.955 25.9694L98.8071 18.5115L98.9749 26.1796L97.7188 26.2459L97.5011 16.2952L98.7572 16.2289L102.919 23.7202L102.751 16.018L103.993 15.9523L104.211 25.9031Z" fill="black"/>
<path d="M107.968 26.1148L106.718 26.0724L106.858 16.1202L108.108 16.1627L107.968 26.1148Z" fill="black"/>
<path d="M118.736 24.0222C118.63 25.081 118.292 25.8608 117.721 26.3616C117.155 26.863 116.379 27.0558 115.392 26.9403C114.401 26.8242 113.632 26.3541 113.085 25.5301C112.538 24.7015 112.295 23.6386 112.358 22.3413L112.446 20.5387C112.509 19.246 112.857 18.2591 113.491 17.578C114.129 16.8974 114.967 16.6178 116.003 16.7392C116.958 16.8511 117.682 17.2266 118.175 17.8656C118.672 18.5007 118.917 19.3557 118.911 20.4307L117.654 20.2836C117.639 19.467 117.498 18.869 117.229 18.4897C116.961 18.1103 116.535 17.8864 115.951 17.8181C115.277 17.7391 114.745 17.9446 114.357 18.4348C113.97 18.9204 113.751 19.6753 113.701 20.6995L113.613 22.5226C113.564 23.5285 113.694 24.3197 114.003 24.8961C114.316 25.473 114.797 25.7993 115.444 25.8751C116.091 25.9509 116.565 25.8439 116.866 25.5542C117.167 25.2644 117.372 24.7047 117.48 23.8751L118.736 24.0222Z" fill="black"/>
<path d="M125.391 26.1329L122.106 25.4097L121.116 27.8305L119.861 27.5541L123.896 18.3316L124.944 18.5623L127.178 29.1652L125.922 28.8888L125.391 26.1329ZM122.525 24.4046L125.175 24.9882L124.258 20.189L122.525 24.4046Z" fill="black"/>
<path d="M136.126 23.0348L133.637 22.2251L132.452 31.0188L131.262 30.6319L132.447 21.8383L129.964 21.0308L130.108 19.9604L136.271 21.9644L136.126 23.0348Z" fill="black"/>
<path d="M138.67 33.5193L137.514 33.042L139.192 23.2313L140.348 23.7086L138.67 33.5193Z" fill="black"/>
<path d="M149.537 34.4757C149.258 35.8048 148.785 36.6974 148.118 37.1537C147.451 37.6099 146.641 37.5969 145.69 37.1145C144.776 36.6507 144.126 35.9359 143.739 34.9701C143.358 34.0019 143.291 32.8749 143.539 31.5891L143.924 29.756C144.198 28.4537 144.674 27.5676 145.353 27.0976C146.033 26.6232 146.842 26.6241 147.781 27.1003C148.716 27.5744 149.369 28.298 149.74 29.2709C150.116 30.2415 150.173 31.3855 149.909 32.7029L149.537 34.4757ZM148.78 32.204C148.996 31.1737 149.002 30.3305 148.799 29.6743C148.6 29.0158 148.183 28.5257 147.549 28.2041C146.935 27.8928 146.417 27.911 145.993 28.2587C145.573 28.6084 145.257 29.2772 145.045 30.2653L144.678 32.0113C144.469 33.0059 144.466 33.8434 144.67 34.524C144.877 35.2066 145.294 35.7066 145.919 36.0241C146.545 36.3415 147.059 36.3357 147.461 36.0066C147.863 35.6774 148.175 35.0187 148.396 34.0303L148.78 32.204Z" fill="black"/>
<path d="M156.778 43.7259L155.712 43.0579L154.263 33.5174L152.336 40.9411L151.27 40.273L153.772 30.6395L154.837 31.3075L156.289 40.8883L158.226 33.4315L159.28 34.0923L156.778 43.7259Z" fill="black"/>
</svg>
