<?xml version="1.0" encoding="UTF-8"?>
<svg xmlns="http://www.w3.org/2000/svg" xmlns:xlink="http://www.w3.org/1999/xlink" width="248pt" height="166pt" viewBox="0 0 248 166" version="1.1">
<g id="surface1">
<path style=" stroke:none;fill-rule:evenodd;fill:rgb(13.699341%,12.199402%,12.5%);fill-opacity:1;" d="M 25.59375 133.625 C 24.691406 135.039063 23.003906 135.988281 21.550781 135.757813 C 20.246094 135.546875 19.484375 134.738281 19.046875 133.628906 Z M 54.6875 133.625 C 54.128906 134.042969 53.550781 134.34375 52.824219 134.800781 C 48.644531 137.449219 47.957031 137.214844 42.519531 142.230469 C 40.917969 143.707031 39.902344 143.78125 39.480469 144.285156 C 39.394531 144.390625 37.699219 145.382813 37.074219 145.832031 C 36.207031 146.460938 34.890625 147.378906 34.15625 147.789063 C 32.527344 148.71875 31.839844 149.675781 30.253906 150.683594 C 28.457031 151.816406 27.332031 152.507813 25.210938 152.851563 C 24.226563 153.011719 23.808594 153.289063 22.808594 153.132813 C 20.746094 152.804688 19.652344 150.628906 19.972656 148.566406 C 20.179688 147.257813 20.910156 146.871094 21.847656 145.953125 C 23.660156 144.164063 24.835938 143.273438 26.980469 141.9375 C 30.503906 139.707031 31.960938 137.589844 35.753906 135.84375 C 37.027344 135.265625 40.09375 134.148438 41.136719 133.625 Z M 89.503906 133.625 C 89.550781 134.84375 89.824219 135.867188 89.617188 137.324219 C 89.074219 139.484375 89.148438 140.484375 88.867188 142.582031 C 88.609375 144.628906 88.710938 145.902344 88.898438 147.949219 C 89.023438 149.476563 88.773438 150.257813 89.203125 151.710938 C 89.816406 153.871094 90.050781 155.054688 90.730469 157.203125 C 91.1875 158.636719 91.421875 159.792969 91.1875 161.28125 C 90.734375 164.183594 88.128906 165.625 84.960938 165.460938 C 84.679688 165.449219 82.296875 165.078125 81.425781 164.28125 C 80.347656 163.253906 80.253906 161.625 80.414063 160.15625 C 80.644531 158.113281 80.8125 157.363281 80.800781 155.238281 C 80.992188 154.171875 80.808594 153.539063 80.691406 152.472656 C 80.4375 150.066406 80.214844 148.671875 80.539063 146.277344 C 80.964844 143.199219 81.480469 141.511719 81.96875 138.4375 C 82.144531 136.546875 82.179688 135.40625 82.242188 133.628906 L 89.503906 133.625 "/>
<path style=" stroke:none;fill-rule:evenodd;fill:rgb(13.699341%,12.199402%,12.5%);fill-opacity:1;" d="M 33.726563 101.625 C 33.445313 102.851563 33.332031 103.617188 33.03125 104.910156 C 32.664063 106.484375 32.707031 107.421875 32.453125 109.023438 C 32.3125 109.949219 32.148438 110.457031 31.894531 111.355469 C 30.410156 116.46875 28.667969 120.105469 27.863281 124.429688 L 27.414063 127.28125 L 26.316406 131.347656 L 26.203125 132.050781 C 26.117188 132.609375 25.902344 133.148438 25.59375 133.628906 L 19.046875 133.625 C 18.597656 132.480469 18.496094 131.015625 18.503906 129.566406 C 18.515625 127.773438 18.390625 126.726563 18.417969 124.929688 C 18.441406 123.910156 18.035156 123.394531 17.964844 122.390625 C 17.949219 122.039063 18.003906 121.839844 18 121.53125 C 17.992188 121.230469 17.714844 116.40625 17.425781 113.144531 C 17.179688 110.449219 17.238281 105.507813 17.148438 105.378906 C 17.039063 105.226563 16.992188 103.425781 17.121094 101.621094 Z M 50.070313 101.625 C 50.058594 101.886719 50.03125 102.167969 49.980469 102.480469 C 49.574219 105.15625 47.574219 107.621094 44.902344 107.199219 C 42.835938 106.878906 41.183594 104.429688 40.898438 101.625 Z M 84.527344 101.625 C 84.414063 101.71875 84.296875 101.816406 84.160156 101.902344 C 82.9375 102.679688 82.199219 103.046875 80.769531 102.796875 C 79.769531 102.621094 78.941406 102.160156 78.285156 101.625 Z M 109.097656 101.625 C 109.054688 101.652344 109.015625 101.683594 108.972656 101.714844 C 106.839844 103.011719 103.707031 105.367188 101.234375 106.164063 C 98.949219 106.90625 96.207031 108.523438 94.402344 110.109375 C 94.03125 110.441406 92.402344 111.148438 91.851563 113.351563 L 91.363281 119.550781 C 91.183594 120.71875 90.523438 121.398438 90.378906 122.789063 L 89.761719 127.121094 C 89.511719 128.742188 90.027344 128.996094 89.8125 130.347656 L 89.589844 132.078125 C 89.5 132.648438 89.484375 133.148438 89.503906 133.621094 L 82.242188 133.625 C 82.25 133.476563 82.253906 133.324219 82.261719 133.164063 C 82.316406 131.128906 82.113281 129.90625 82.195313 127.882813 C 82.316406 124.460938 82.613281 122.582031 82.960938 119.171875 C 83.03125 118.335938 83.101563 117.894531 83.144531 117.058594 C 83.289063 116.039063 82.933594 115.484375 82.265625 115.371094 C 80.871094 115.148438 80.121094 116.074219 78.804688 116.570313 C 76.980469 117.238281 75.976563 118.003906 74.355469 119.078125 C 71.15625 120.722656 69.773438 121.742188 67.058594 123.894531 C 65.273438 125.308594 64.378906 126.3125 62.453125 127.53125 C 60.898438 128.507813 59.917969 128.953125 58.417969 130 C 57.183594 130.851563 56.6875 131.621094 55.667969 132.746094 C 55.328125 133.113281 55.011719 133.390625 54.6875 133.632813 L 41.136719 133.625 C 41.175781 133.601563 41.214844 133.582031 41.246094 133.566406 C 42.808594 132.707031 44.226563 131.714844 45.542969 130.519531 C 46.121094 129.976563 46.6875 129.902344 47.25 129.335938 C 47.847656 128.730469 48.089844 128.253906 48.765625 127.71875 C 50.292969 126.515625 51.371094 126.09375 53.128906 125.238281 C 55.414063 124.128906 56.679688 123.675781 58.878906 122.386719 C 60.441406 121.480469 61.199219 120.597656 62.527344 119.382813 C 65.15625 116.992188 67.335938 116.585938 70.515625 114.960938 C 71.988281 114.210938 72.558594 113.34375 73.789063 112.242188 C 74.464844 111.632813 76.730469 109.507813 78.871094 108.152344 C 80.300781 107.242188 81.160156 106.796875 82.601563 105.898438 C 85.085938 104.355469 85.742188 105.15625 86.148438 102.257813 C 86.179688 102.058594 86.238281 101.828125 86.246094 101.625 L 109.097656 101.625 "/>
<path style=" stroke:none;fill-rule:evenodd;fill:rgb(13.699341%,12.199402%,12.5%);fill-opacity:1;" d="M 8.226563 85.625 C 7.976563 86.058594 7.710938 86.511719 7.398438 87.019531 C 6.402344 88.65625 5.011719 90.039063 3.332031 89.820313 C 1.917969 89.625 0.726563 87.832031 0.867188 86.519531 C 0.886719 86.277344 0.953125 85.96875 1.054688 85.621094 Z M 25.015625 85.625 C 25.015625 85.652344 25.019531 85.675781 25.019531 85.699219 C 25.140625 87.441406 25.046875 89.621094 25.003906 90.203125 C 24.9375 90.953125 24.898438 92.390625 24.914063 93.144531 C 24.914063 93.691406 24.839844 94.863281 24.902344 96.710938 C 25.121094 98.003906 24.824219 99.007813 25.1875 100.40625 C 25.273438 100.777344 25.425781 101.1875 25.804688 101.246094 C 26.128906 101.304688 26.515625 100.84375 26.808594 100.441406 C 27.792969 99.136719 27.867188 98.222656 28.660156 96.785156 C 29.65625 94.980469 30.15625 93.757813 30.75 91.941406 C 31.332031 90.515625 32.0625 88.171875 32.984375 85.628906 L 39.898438 85.625 C 39.140625 87.351563 38.324219 89.175781 37.40625 91.355469 C 36.472656 93.558594 36.269531 94.921875 35.378906 97.125 C 34.714844 98.765625 34.191406 99.65625 33.78125 101.386719 C 33.761719 101.46875 33.742188 101.546875 33.726563 101.625 L 17.121094 101.625 C 17.125 101.554688 17.128906 101.492188 17.132813 101.425781 C 17.21875 100.324219 17 99.113281 16.992188 98.621094 C 17.003906 98.078125 17.253906 97.808594 17.25 97.265625 C 17.238281 95.761719 17.289063 94.90625 17.191406 93.414063 C 17.085938 91.980469 17.03125 91.226563 17.03125 89.738281 L 17.121094 89.15625 C 17.214844 88.078125 17.207031 86.902344 17.179688 85.632813 Z M 55.058594 85.625 C 54.867188 85.867188 54.652344 86.113281 54.414063 86.386719 C 53.804688 87.09375 53.691406 87.703125 53.167969 88.503906 C 52.1875 89.957031 51.523438 91.339844 51.265625 92.578125 C 50.78125 95.136719 50.519531 96.582031 50.171875 99.160156 C 50.039063 100.132813 50.113281 100.800781 50.070313 101.617188 L 40.898438 101.625 C 40.820313 100.835938 40.847656 100.023438 41.007813 99.21875 C 41.277344 97.898438 41.605469 97.199219 42.054688 95.9375 C 42.773438 93.957031 43.457031 91.695313 43.96875 90.871094 C 44.664063 89.785156 44.695313 89.359375 44.847656 89.015625 L 45.488281 86.953125 C 45.59375 86.292969 45.832031 86.0625 46.0625 85.621094 Z M 68.09375 85.625 C 67.882813 86.414063 67.722656 87.050781 67.550781 88 C 67.15625 90.136719 67.039063 91.359375 66.707031 93.496094 C 66.296875 94.652344 66.367188 95.480469 65.644531 96.445313 C 64.488281 97.992188 62.949219 98.605469 61.039063 98.296875 C 58.820313 97.945313 57.199219 95.886719 57.59375 93.667969 C 57.707031 93.011719 58.300781 91.054688 58.535156 89.339844 C 58.730469 87.886719 58.828125 86.773438 58.945313 85.625 Z M 85.054688 85.625 C 84.988281 85.835938 84.933594 86.042969 84.878906 86.238281 C 84.769531 86.652344 84.664063 86.996094 84.59375 87.433594 C 84.519531 87.914063 84.738281 88.859375 85.21875 88.933594 C 85.976563 89.054688 86.800781 88.253906 87.171875 87.578125 C 87.605469 86.796875 87.972656 86.21875 88.316406 85.632813 L 99.691406 85.625 C 99.296875 86.78125 98.921875 88.019531 98.582031 89.429688 C 98.382813 90.238281 98.371094 90.738281 98.167969 91.546875 C 97.816406 92.988281 97.355469 93.726563 97.132813 95.203125 C 97.027344 95.859375 97.113281 96.25 97.203125 96.898438 C 97.246094 97.242188 97.292969 97.648438 97.640625 97.703125 C 98.3125 97.808594 98.671875 97.371094 99.292969 97.101563 C 100.496094 96.589844 101.269531 96.476563 102.453125 95.941406 C 104.289063 95.113281 105.429688 94.839844 107.214844 93.929688 C 109.039063 92.992188 111.007813 91.410156 112.875 90.582031 C 114.710938 89.773438 114.875 90.078125 116.828125 89.242188 C 119.203125 88.21875 120.617188 87.71875 122.894531 86.507813 C 123.460938 86.203125 123.816406 85.910156 124.179688 85.625 L 146.746094 85.625 C 146.472656 85.730469 146.195313 85.839844 145.921875 85.949219 C 138.734375 88.832031 133.867188 90.207031 126.839844 93.417969 C 124.121094 94.671875 123.324219 95.359375 120.492188 96.324219 C 118.746094 96.929688 117.609375 96.921875 115.914063 97.648438 C 113.09375 98.855469 111.507813 99.777344 109.097656 101.621094 L 86.246094 101.625 C 86.261719 101.316406 86.167969 101.0625 85.714844 101.023438 C 85.179688 100.984375 84.890625 101.300781 84.527344 101.621094 L 78.285156 101.625 C 77.03125 100.605469 76.398438 99.3125 76.355469 99.1875 C 75.785156 97.421875 75.238281 92.234375 75.425781 90.695313 C 75.425781 90.695313 75.660156 88.617188 75.941406 87.457031 C 76.058594 86.957031 76.230469 86.316406 76.453125 85.632813 Z M 113.019531 85.625 C 112.0625 86.855469 110.449219 87.476563 108.753906 87.230469 C 107.828125 87.101563 106.96875 86.472656 106.332031 85.632813 L 113.019531 85.625 "/>
<path style=" stroke:none;fill-rule:evenodd;fill:rgb(13.699341%,12.199402%,12.5%);fill-opacity:1;" d="M 1.054688 85.625 C 1.390625 84.457031 2.105469 82.816406 2.882813 81.441406 C 3.941406 79.574219 4.75 78.09375 5.441406 76.542969 C 6.171875 74.886719 6.535156 74.441406 7.300781 72.679688 C 8.28125 70.386719 9.460938 68.945313 10.496094 66.675781 C 11.710938 63.996094 12.675781 62.835938 14.03125 60.222656 C 14.660156 58.992188 15.113281 58.113281 15.675781 56.835938 C 15.945313 56.242188 16.894531 54.464844 17.554688 52.894531 C 18.066406 51.667969 18.527344 50.347656 18.960938 49.796875 C 19.792969 48.886719 20.996094 48.8125 22.226563 49.015625 C 24.828125 49.429688 26.367188 51.0625 25.988281 53.644531 C 25.738281 55.363281 25.160156 57.359375 25.207031 59.152344 C 25.039063 60.34375 25.289063 59.902344 25.28125 61.089844 C 25.273438 65.757813 25.496094 66.390625 25.296875 70.035156 C 25.421875 72.175781 25.152344 75.957031 25.152344 75.957031 C 24.921875 77.417969 25.066406 80.011719 25.171875 81.484375 C 25.261719 82.914063 24.859375 83.425781 25.015625 85.628906 L 17.179688 85.625 C 17.136719 83.886719 17.050781 81.964844 17.117188 79.871094 C 17.167969 78.246094 17.398438 77.324219 17.507813 75.699219 C 17.585938 74.40625 17.765625 72.667969 17.207031 72.335938 C 16.4375 71.886719 15.984375 73.023438 15.582031 73.59375 C 14.699219 74.832031 14.1875 75.515625 13.402344 76.832031 C 12.289063 78.710938 11.820313 79.863281 10.601563 81.683594 C 9.574219 83.210938 8.996094 84.292969 8.226563 85.628906 Z M 32.984375 85.625 C 33.394531 84.496094 33.839844 83.324219 34.324219 82.175781 C 35.925781 78.402344 36.664063 76.203125 38.042969 72.359375 C 38.996094 69.730469 39.808594 68.175781 40.6875 65.679688 C 41.15625 64.503906 41.625 63.882813 41.816406 62.621094 C 42.035156 61.910156 42.316406 61.488281 42.578125 60.753906 C 43.519531 58.140625 44.296875 56.285156 44.890625 54.023438 L 44.992188 53.386719 C 45.1875 52.921875 45.542969 51.832031 46.335938 50.742188 C 47.269531 48.921875 48.039063 48 49.390625 46.460938 C 51.394531 44.171875 51.464844 42.175781 52.871094 39.460938 C 53.039063 39.265625 54 37.8125 54.351563 36.609375 C 54.523438 36.476563 55.0625 35.671875 55.390625 34.6875 C 55.824219 34.324219 58.4375 27.972656 59.957031 25.480469 C 60.113281 24.839844 60.804688 24.101563 61.246094 23.222656 C 61.652344 22.390625 63.84375 18.65625 64.953125 16.335938 C 65.875 14.464844 65.886719 13.171875 66.988281 11.421875 C 68.175781 9.550781 69.0625 7.390625 69.449219 6.3125 C 70.140625 5.15625 70.722656 4.59375 71.664063 3.617188 C 73.011719 2.210938 73.878906 1.296875 75.78125 0.875 C 76.664063 0.6875 77.292969 0.425781 78.171875 0.566406 C 81.277344 1.070313 82.523438 3.757813 82.976563 4.652344 C 83.121094 5.5 83.21875 6.351563 83.238281 8.054688 C 83.226563 8.394531 83.214844 8.601563 83.160156 8.941406 C 82.945313 10.296875 82.492188 11.019531 81.789063 12.199219 C 81.183594 13.222656 80.882813 13.878906 79.945313 14.621094 C 78.578125 15.699219 77.691406 15.945313 77.277344 16.355469 C 77.089844 16.546875 75.714844 17.46875 75.285156 17.925781 C 74.859375 18.382813 73.175781 20.273438 72.449219 21.339844 C 71.851563 22.214844 71.652344 23.789063 69.722656 25.722656 C 68.9375 26.515625 68.320313 26.867188 67.808594 27.863281 C 67.292969 28.867188 67.191406 29.566406 66.476563 30.433594 C 65.160156 32.015625 64.09375 32.617188 62.949219 34.3125 C 61.847656 35.953125 61.632813 37.09375 60.789063 38.867188 C 59.894531 40.71875 58.4375 41.28125 57.914063 43.257813 C 57.65625 44.183594 57.785156 44.773438 57.527344 45.714844 C 56.757813 48.550781 54.59375 49.269531 52.757813 51.578125 C 52.089844 52.4375 51.976563 53.128906 51.632813 54.175781 C 51.15625 55.636719 50.777344 56.410156 50.074219 57.777344 C 48.882813 60.078125 48.710938 61.609375 47.835938 64.046875 C 47.261719 65.644531 46.925781 66.554688 46.394531 68.160156 C 46.121094 69 45.542969 69.339844 45.402344 70.222656 L 45.277344 71.066406 C 45.1875 71.636719 44.789063 71.855469 44.664063 72.429688 C 44.359375 73.710938 44.015625 74.382813 43.636719 75.640625 C 42.410156 79.703125 41.25 82.515625 39.898438 85.621094 Z M 46.0625 85.625 C 46.132813 85.484375 46.203125 85.328125 46.269531 85.136719 C 46.847656 83.363281 47.21875 82.386719 48.082031 80.722656 C 48.605469 79.695313 49.179688 79.277344 49.71875 78.273438 C 50.511719 76.824219 51.609375 75.648438 53.238281 75.90625 C 54.347656 76.097656 55.050781 76.617188 55.5625 77.605469 C 56.390625 79.210938 56.882813 80.378906 56.605469 82.15625 C 56.546875 82.542969 56.484375 82.75 56.390625 83.125 C 56.082031 84.207031 55.667969 84.882813 55.058594 85.628906 Z M 58.945313 85.625 C 59.035156 84.714844 59.140625 83.78125 59.320313 82.636719 C 59.519531 81.339844 60.210938 80.738281 60.417969 79.429688 L 60.59375 78.339844 C 60.707031 77.382813 61.773438 76.667969 62.867188 76.050781 C 64.433594 75.15625 65.210938 74.007813 66.128906 72.449219 C 67.640625 69.878906 68.578125 67.816406 71.21875 68.234375 C 73.507813 68.605469 74.226563 70.652344 75.039063 72.832031 C 75.835938 74.945313 76.90625 76.195313 76.554688 78.40625 C 76.203125 80.628906 74.574219 81.511719 72.632813 82.65625 C 71.535156 83.3125 70.714844 83.007813 69.378906 83.191406 C 68.765625 83.277344 68.519531 84.050781 68.332031 84.742188 C 68.246094 85.070313 68.164063 85.359375 68.09375 85.632813 Z M 76.453125 85.625 C 76.878906 84.332031 77.488281 82.875 78.257813 81.921875 C 78.898438 81.121094 79.90625 77.691406 81.035156 74.5625 C 81.445313 73.421875 82.285156 72.332031 82.847656 71.253906 C 83.648438 69.695313 84.070313 68.738281 85.285156 67.472656 C 87.433594 65.246094 88.851563 62.570313 91.910156 63.070313 C 92.59375 63.179688 92.878906 63.398438 93.449219 63.792969 C 93.808594 64.066406 94.238281 64.210938 94.417969 64.613281 C 94.574219 64.980469 94.332031 65.246094 94.613281 65.542969 C 95.117188 66.082031 95.234375 67.039063 95.09375 67.949219 C 95.011719 68.46875 94.960938 68.777344 94.820313 69.277344 C 94.265625 71.300781 92.882813 71.9375 91.332031 73.351563 C 89.824219 74.734375 89.4375 75.203125 88.351563 76.933594 C 87.46875 78.347656 87.0625 79.886719 86.488281 81.453125 C 85.917969 83.015625 85.402344 84.433594 85.054688 85.621094 Z M 88.316406 85.625 C 88.664063 85.035156 88.988281 84.429688 89.339844 83.59375 C 90.347656 81.222656 90.921875 80.191406 92.21875 78.25 C 93.828125 75.847656 94.210938 74.21875 95.246094 72.207031 C 96.492188 69.78125 97.589844 67.535156 100.289063 67.980469 C 101.148438 68.117188 101.714844 68.210938 102.390625 68.765625 C 103.929688 69.972656 104.09375 71.648438 103.789063 73.582031 C 103.675781 74.167969 103.609375 74.519531 103.453125 75.097656 C 102.289063 79.390625 100.902344 82.09375 99.691406 85.628906 Z M 106.332031 85.625 C 105.546875 84.59375 105.101563 83.230469 105.285156 82.085938 C 105.519531 80.605469 106.066406 79.878906 106.390625 78.414063 C 106.660156 77.136719 106.683594 76.398438 106.972656 75.128906 C 107.445313 72.964844 108.230469 71.890625 109.238281 69.917969 C 109.738281 68.941406 109.824219 68.265625 110.378906 67.316406 C 111.175781 65.925781 111.472656 65.117188 112.574219 63.828125 C 113.210938 62.269531 114.648438 61.039063 116.417969 61.328125 C 118.597656 61.671875 120.625 62.820313 120.121094 65.597656 C 119.835938 67.242188 118.847656 67.90625 118.019531 69.339844 C 117.332031 70.527344 117.449219 71.417969 116.902344 72.675781 C 116.074219 74.539063 115.289063 74.207031 114.882813 77.519531 C 114.53125 79.996094 114.304688 81.394531 113.832031 83.847656 C 113.695313 84.53125 113.410156 85.132813 113.019531 85.632813 Z M 124.179688 85.625 C 124.691406 85.21875 125.207031 84.820313 126.335938 84.40625 C 128.1875 83.710938 129.25 83.351563 131.0625 82.574219 C 132.03125 82.15625 132.539063 81.800781 133.546875 81.515625 C 134.382813 81.273438 135.214844 81.039063 135.351563 80.179688 C 135.480469 79.316406 135.023438 78.730469 134.699219 77.925781 C 134.234375 76.769531 134.210938 76.175781 134.398438 74.945313 C 134.496094 74.335938 134.546875 73.871094 134.738281 73.289063 C 135.503906 70.957031 136.632813 69.839844 137.011719 67.417969 L 137.207031 66.640625 C 137.105469 66.535156 137.0625 66.417969 136.914063 66.394531 C 136.574219 66.339844 136.308594 66.742188 136.058594 66.96875 C 135.320313 67.589844 134.898438 67.980469 134.175781 68.617188 C 133.21875 69.445313 132.613281 69.878906 131.894531 70.90625 C 131.480469 71.464844 131.46875 71.90625 131.113281 72.507813 C 130.339844 73.808594 129.804688 74.574219 129.117188 75.925781 C 127.242188 79.550781 126.53125 84.628906 122.488281 83.980469 C 119.835938 83.554688 118.015625 81.105469 118.429688 78.453125 C 118.671875 76.917969 119.476563 74.65625 119.691406 74.515625 C 120.429688 74.070313 120.136719 72.519531 120.574219 72.242188 C 120.933594 72.027344 121.265625 70.703125 121.476563 69.386719 C 121.570313 68.777344 121.800781 68.445313 121.894531 67.839844 L 122.117188 66.867188 C 122.292969 65.761719 122.730469 65.238281 123.066406 64.179688 C 123.742188 62.027344 124.402344 61.582031 124.6875 60.980469 C 124.847656 60.632813 124.847656 60.457031 125.03125 60.117188 C 126.058594 58.230469 126.085938 57.015625 128.300781 55.675781 C 129.109375 55.089844 129.667969 54.414063 130.65625 54.570313 C 132.941406 54.9375 133.367188 56.34375 133.96875 56.378906 C 135.054688 56.441406 135.539063 55.675781 136.414063 55.050781 C 139.066406 53.203125 140.972656 50.742188 144.199219 51.265625 C 146.945313 51.707031 147.90625 54.625 147.359375 57.605469 C 147.308594 57.882813 147.1875 58.015625 147.144531 58.300781 C 147.023438 59.0625 147.066406 59.5 146.945313 60.257813 C 146.835938 60.964844 146.292969 62.804688 146.292969 62.804688 C 146.0625 64.261719 145.492188 64.992188 145.261719 66.453125 C 145.199219 66.863281 145.28125 67.121094 145.21875 67.535156 C 145.085938 68.371094 144.886719 68.820313 144.6875 69.644531 C 144.195313 71.664063 145.5625 72.019531 145.875 73.035156 C 146.789063 73.648438 147.140625 74.578125 148.265625 74.757813 C 148.78125 74.84375 150.46875 74.425781 150.917969 74.347656 C 153.117188 73.765625 154.386719 73.46875 156.535156 72.730469 C 159.855469 71.597656 161.328125 70.488281 164.613281 69.09375 C 166.785156 68.144531 168.824219 67.1875 171.167969 67.566406 C 173.117188 67.871094 174.714844 69.613281 175.046875 71.042969 C 175.203125 71.734375 175.441406 72.628906 175.304688 73.492188 C 175.257813 73.800781 175.367188 73.988281 175.320313 74.292969 C 175.246094 74.742188 175.195313 75.003906 175.074219 75.441406 C 174.730469 76.6875 174.636719 77.472656 173.984375 78.578125 C 173.3125 79.722656 172.421875 80.035156 171.214844 80.589844 C 169.871094 81.222656 168.8125 81.460938 167.332031 81.226563 L 166.550781 81.101563 C 165.511719 80.929688 165.105469 80.539063 164.058594 80.375 C 162.417969 80.113281 161.308594 80.617188 159.734375 81.121094 C 157.851563 81.707031 155.695313 82.519531 155.042969 82.714844 C 153.351563 83.203125 150.003906 84.347656 146.746094 85.625 Z M 125.765625 41.4375 C 127.730469 41.757813 129.519531 43.390625 129.136719 45.347656 C 128.816406 46.90625 128.273438 47.144531 127.84375 47.65625 C 127.171875 48.457031 127.140625 49.960938 124.09375 49.777344 C 122.515625 49.519531 120.847656 47.398438 121.171875 45.355469 C 121.53125 43.050781 123.449219 41.074219 125.765625 41.4375 Z M 55.800781 59.605469 C 57.109375 59.8125 57.941406 60.605469 58.449219 61.84375 C 58.945313 63.066406 59.402344 63.84375 59.195313 65.148438 C 59.160156 65.378906 59.074219 65.496094 59.035156 65.722656 C 58.695313 67.960938 56.542969 69.429688 54.304688 69.078125 C 52.078125 68.707031 50.808594 66.164063 51.125 64.210938 C 51.25 63.429688 51.808594 63.011719 52.027344 62.171875 C 52.558594 60.1875 54.015625 59.3125 55.800781 59.605469 "/>
<path style=" stroke:none;fill-rule:evenodd;fill:rgb(13.699341%,12.199402%,12.5%);fill-opacity:1;" d="M 112.113281 128.28125 L 117.019531 134.6875 L 111.964844 134.6875 L 108.097656 128.695313 L 108.097656 134.6875 L 104.035156 134.6875 L 104.035156 119.070313 L 110.351563 119.070313 C 111.226563 119.070313 111.972656 119.183594 112.582031 119.402344 C 113.199219 119.625 113.734375 119.972656 114.183594 120.445313 C 115.074219 121.390625 115.523438 122.542969 115.523438 123.898438 C 115.523438 124.585938 115.390625 125.238281 115.132813 125.855469 C 114.882813 126.472656 114.539063 126.972656 114.101563 127.355469 C 113.613281 127.78125 112.949219 128.089844 112.113281 128.28125 Z M 108.097656 126.0625 L 108.851563 126.0625 C 109.621094 126.0625 110.203125 125.925781 110.589844 125.652344 C 110.804688 125.488281 110.984375 125.269531 111.128906 124.988281 C 111.273438 124.699219 111.347656 124.410156 111.347656 124.128906 C 111.347656 123.847656 111.273438 123.566406 111.128906 123.28125 C 110.984375 122.992188 110.804688 122.769531 110.589844 122.605469 C 110.203125 122.332031 109.621094 122.195313 108.851563 122.195313 L 108.097656 122.195313 L 108.097656 126.0625 "/>
<path style=" stroke:none;fill-rule:nonzero;fill:rgb(13.699341%,12.199402%,12.5%);fill-opacity:1;" d="M 134.644531 122.503906 L 129.816406 122.503906 L 129.816406 125.113281 L 134.382813 125.113281 L 134.382813 128.542969 L 129.816406 128.542969 L 129.816406 131.257813 L 134.644531 131.257813 L 134.644531 134.6875 L 125.753906 134.6875 L 125.753906 119.070313 L 134.644531 119.070313 L 134.644531 122.503906 "/>
<path style=" stroke:none;fill-rule:nonzero;fill:rgb(13.699341%,12.199402%,12.5%);fill-opacity:1;" d="M 155.496094 119.53125 L 155.496094 124.390625 C 154.5625 123.246094 153.394531 122.675781 151.980469 122.675781 C 150.746094 122.675781 149.71875 123.109375 148.894531 123.980469 C 148.160156 124.742188 147.796875 125.742188 147.796875 126.976563 C 147.796875 128.3125 148.253906 129.363281 149.167969 130.136719 C 149.992188 130.828125 150.925781 131.175781 151.972656 131.175781 C 153.28125 131.175781 154.457031 130.632813 155.496094 129.539063 L 155.496094 134.34375 C 154.535156 134.664063 153.828125 134.871094 153.378906 134.964844 C 152.929688 135.0625 152.421875 135.113281 151.855469 135.113281 C 150.421875 135.113281 149.046875 134.75 147.726563 134.027344 C 146.324219 133.253906 145.261719 132.230469 144.546875 130.949219 C 143.882813 129.78125 143.550781 128.46875 143.550781 127.011719 C 143.550781 125.378906 143.953125 123.914063 144.761719 122.617188 C 145.527344 121.382813 146.582031 120.414063 147.933594 119.710938 C 149.167969 119.066406 150.464844 118.738281 151.820313 118.738281 C 152.9375 118.738281 154.160156 119.003906 155.496094 119.53125 "/>
<path style=" stroke:none;fill-rule:evenodd;fill:rgb(13.699341%,12.199402%,12.5%);fill-opacity:1;" d="M 173.039063 118.601563 C 175.648438 118.601563 177.777344 119.476563 179.433594 121.222656 C 180.9375 122.800781 181.6875 124.699219 181.6875 126.921875 C 181.6875 128.445313 181.3125 129.851563 180.554688 131.140625 C 179.746094 132.53125 178.628906 133.585938 177.203125 134.3125 C 175.96875 134.9375 174.554688 135.25 172.96875 135.25 C 170.398438 135.25 168.292969 134.378906 166.65625 132.640625 C 165.152344 131.054688 164.402344 129.101563 164.402344 126.78125 C 164.402344 125.328125 164.777344 123.96875 165.53125 122.710938 C 167.144531 120.027344 169.644531 118.65625 173.039063 118.601563 Z M 173.039063 122.539063 C 171.824219 122.539063 170.796875 122.964844 169.949219 123.820313 C 169.089844 124.691406 168.65625 125.707031 168.65625 126.875 C 168.65625 128.109375 169.089844 129.164063 169.949219 130.03125 C 170.796875 130.886719 171.828125 131.3125 173.050781 131.3125 C 174.261719 131.3125 175.300781 130.886719 176.160156 130.03125 C 177.015625 129.171875 177.441406 128.132813 177.441406 126.921875 C 177.441406 125.691406 177.015625 124.660156 176.160156 123.820313 C 175.300781 122.980469 174.257813 122.554688 173.039063 122.539063 "/>
<path style=" stroke:none;fill-rule:evenodd;fill:rgb(13.699341%,12.199402%,12.5%);fill-opacity:1;" d="M 199.367188 128.28125 L 204.277344 134.6875 L 199.222656 134.6875 L 195.355469 128.695313 L 195.355469 134.6875 L 191.292969 134.6875 L 191.292969 119.070313 L 197.605469 119.070313 C 198.484375 119.070313 199.226563 119.183594 199.839844 119.402344 C 200.457031 119.625 200.988281 119.972656 201.441406 120.445313 C 202.332031 121.390625 202.777344 122.542969 202.777344 123.898438 C 202.777344 124.585938 202.648438 125.238281 202.390625 125.855469 C 202.136719 126.472656 201.796875 126.972656 201.359375 127.355469 C 200.871094 127.78125 200.207031 128.089844 199.367188 128.28125 Z M 195.355469 126.0625 L 196.109375 126.0625 C 196.878906 126.0625 197.457031 125.925781 197.847656 125.652344 C 198.0625 125.488281 198.238281 125.269531 198.386719 124.988281 C 198.53125 124.699219 198.601563 124.410156 198.601563 124.128906 C 198.601563 123.847656 198.53125 123.566406 198.386719 123.28125 C 198.238281 122.992188 198.0625 122.769531 197.847656 122.605469 C 197.460938 122.332031 196.878906 122.195313 196.109375 122.195313 L 195.355469 122.195313 L 195.355469 126.0625 "/>
<path style=" stroke:none;fill-rule:evenodd;fill:rgb(13.699341%,12.199402%,12.5%);fill-opacity:1;" d="M 213.011719 134.6875 L 213.011719 119.070313 L 219.007813 119.070313 C 220.960938 119.070313 222.671875 119.761719 224.144531 121.144531 C 224.984375 121.921875 225.628906 122.835938 226.078125 123.890625 C 226.496094 124.871094 226.707031 125.867188 226.707031 126.875 C 226.707031 128.355469 226.285156 129.75 225.449219 131.0625 C 224.609375 132.367188 223.511719 133.339844 222.152344 133.980469 C 221.144531 134.453125 220.097656 134.6875 219.007813 134.6875 Z M 217.074219 131.257813 L 218 131.257813 C 218.761719 131.257813 219.40625 131.152344 219.933594 130.949219 C 220.460938 130.742188 220.925781 130.410156 221.328125 129.953125 C 222.085938 129.105469 222.460938 128.082031 222.460938 126.875 C 222.460938 125.675781 222.085938 124.65625 221.328125 123.808594 C 220.925781 123.351563 220.460938 123.019531 219.933594 122.8125 C 219.40625 122.605469 218.761719 122.503906 218 122.503906 L 217.074219 122.503906 L 217.074219 131.257813 "/>
<path style=" stroke:none;fill-rule:nonzero;fill:rgb(13.699341%,12.199402%,12.5%);fill-opacity:1;" d="M 246.515625 119.964844 L 244.890625 123.121094 C 244.023438 122.421875 243.136719 122.070313 242.238281 122.070313 C 241.664063 122.070313 241.21875 122.230469 240.898438 122.550781 C 240.632813 122.808594 240.496094 123.09375 240.496094 123.40625 C 240.496094 123.882813 240.820313 124.273438 241.46875 124.585938 C 241.652344 124.671875 242.265625 124.867188 243.3125 125.179688 C 244.671875 125.585938 245.644531 126.128906 246.242188 126.804688 C 246.84375 127.484375 247.144531 128.390625 247.144531 129.519531 C 247.144531 131.53125 246.472656 133.007813 245.132813 133.945313 C 244.03125 134.714844 242.675781 135.101563 241.058594 135.101563 C 239.128906 135.101563 237.316406 134.511719 235.625 133.328125 L 237.363281 130.054688 C 238.574219 131.117188 239.769531 131.644531 240.945313 131.644531 C 241.660156 131.644531 242.183594 131.460938 242.511719 131.085938 C 242.769531 130.789063 242.898438 130.46875 242.898438 130.125 C 242.898438 129.695313 242.730469 129.359375 242.386719 129.117188 C 242.050781 128.863281 241.40625 128.597656 240.453125 128.316406 C 238.964844 127.882813 237.976563 127.460938 237.488281 127.058594 C 236.65625 126.378906 236.242188 125.34375 236.242188 123.957031 C 236.242188 122.332031 236.78125 121.027344 237.855469 120.042969 C 238.832031 119.144531 240.066406 118.695313 241.5625 118.695313 C 243.261719 118.695313 244.914063 119.117188 246.515625 119.964844 "/>
</g>
</svg>
