<svg width="350" height="350" viewBox="0 0 350 350" fill="none" xmlns="http://www.w3.org/2000/svg">
<circle cx="175" cy="175" r="174" fill="#FFE42B" stroke="black" stroke-width="2"/>
<path d="M28 258.798L48.8471 245" stroke="black"/>
<path d="M302 245L323.541 257.688" stroke="black"/>
<path d="M175 6V18.5V31" stroke="black"/>
<path d="M24.7052 139.899L24.2045 143.384L27.6176 144.275L28.2008 140.215L29.2393 140.486L28.4781 145.784L18.8476 143.271L19.599 138.04L20.6441 138.313L20.0705 142.305L23.1661 143.113L23.6667 139.628L24.7052 139.899Z" fill="black"/>
<path d="M31.2983 130.324L31.0286 131.553L22.8671 133.113L30.1739 135.445L29.9042 136.674L20.4223 133.648L20.692 132.419L28.8889 130.856L21.5496 128.513L21.8164 127.298L31.2983 130.324Z" fill="black"/>
<path d="M31.403 122.862L24.5558 117.823L24.9533 116.508L33.3582 123.016L33.0418 124.063L22.8474 123.477L23.2428 122.168L31.403 122.862Z" fill="black"/>
<path d="M35.8823 115.642L35.445 116.814L26.3118 112.859L26.7491 111.686L35.8823 115.642Z" fill="black"/>
<path d="M35.5147 106.041L34.7992 107.638L38.4192 109.401L37.9049 110.548L28.9564 106.191L30.0966 103.646C30.4954 102.756 31.0267 102.194 31.6905 101.96C32.3503 101.723 33.1206 101.82 34.0015 102.249C34.5547 102.518 34.9823 102.878 35.2843 103.33C35.5841 103.774 35.7369 104.274 35.7428 104.83L40.3353 104.923L40.4091 104.959L39.8585 106.188L35.5147 106.041ZM33.8343 107.168L34.4547 105.783C34.669 105.305 34.6879 104.85 34.5114 104.42C34.3367 103.985 33.9954 103.644 33.4873 103.397C32.34 102.838 31.5298 103.087 31.0565 104.143L30.4417 105.516L33.8343 107.168Z" fill="black"/>
<path d="M41.6149 94.0126C42.8018 94.6726 43.5771 95.4348 43.9408 96.2993C44.3044 97.1638 44.2306 98.0639 43.7192 98.9997C43.2274 99.8994 42.5277 100.439 41.6201 100.617C40.7107 100.789 39.6809 100.568 38.5309 99.9549L36.8939 99.0446C35.7309 98.3979 34.9618 97.6338 34.5866 96.7525C34.2073 95.869 34.2702 94.9653 34.775 94.0415C35.2777 93.1218 35.9855 92.582 36.8986 92.4223C37.8098 92.2564 38.8542 92.493 40.0317 93.1321L41.6149 94.0126ZM39.4915 94.2631C38.5715 93.7515 37.8054 93.5236 37.1932 93.5795C36.5792 93.6291 36.1017 93.9659 35.7608 94.5897C35.4308 95.1936 35.4075 95.7777 35.6911 96.3421C35.9769 96.9025 36.5608 97.4306 37.4428 97.9263L39.0021 98.7934C39.8903 99.2873 40.6515 99.5099 41.2858 99.4611C41.9223 99.4083 42.4088 99.074 42.7453 98.4581C43.0819 97.8423 43.116 97.2668 42.8476 96.7317C42.5792 96.1965 42.0041 95.676 41.1225 95.1701L39.4915 94.2631Z" fill="black"/>
<path d="M50.9396 87.1191L50.248 88.1697L41.574 87.3995L48.0567 91.4985L47.3652 92.5492L38.9526 87.2299L39.6442 86.1793L48.3546 86.9563L41.843 82.839L42.5271 81.7998L50.9396 87.1191Z" fill="black"/>
<path d="M46.2936 76.7957L54.4954 79.5062L49.5188 72.7226L50.5203 71.4578L58.5959 77.2758L57.8193 78.2566L54.6745 75.9909L51.5962 73.6301L56.2746 80.2073L55.6805 80.9576L47.7992 78.4695L50.9995 80.632L54.1443 82.8977L53.3678 83.8784L45.2921 78.0605L46.2936 76.7957Z" fill="black"/>
<path d="M60.8415 68.203L58.4395 70.7769L61.18 72.9977L63.9783 69.9991L64.8121 70.6748L61.1603 74.5881L53.4276 68.3214L57.0328 64.4582L57.8719 65.1382L55.1202 68.0869L57.6057 70.1012L60.0077 67.5273L60.8415 68.203Z" fill="black"/>
<path d="M72.3302 63.688L71.4059 64.5411L62.7833 62.1058L68.4775 67.2443L67.5532 68.0974L60.164 61.4293L61.0883 60.5761L69.7463 63.0251L64.0268 57.8637L64.941 57.0198L72.3302 63.688Z" fill="black"/>
<path d="M73.953 51.1526L71.8994 52.7766L78.1457 59.0786L77.1644 59.8546L70.9181 53.5526L68.8699 55.1723L68.1095 54.4052L73.1927 50.3855L73.953 51.1526Z" fill="black"/>
<path d="M284.819 69.1189C285.189 68.7872 285.365 68.4519 285.348 68.1128C285.33 67.7738 285.135 67.3084 284.763 66.7166C284.391 66.1249 284.158 65.6247 284.064 65.2162C283.977 64.8074 283.989 64.4293 284.102 64.082C284.221 63.7345 284.451 63.4086 284.79 63.1044C285.377 62.578 286.069 62.3029 286.867 62.2791C287.668 62.2581 288.407 62.5052 289.086 63.0206C289.551 63.3734 289.866 63.7758 290.032 64.2278C290.202 64.6768 290.212 65.1309 290.061 65.5901C289.911 66.0492 289.629 66.4644 289.215 66.8356L288.214 66.0749C288.672 65.6642 288.908 65.2567 288.923 64.8524C288.939 64.4481 288.725 64.0779 288.282 63.7416C287.879 63.4357 287.462 63.293 287.03 63.3136C286.598 63.3341 286.192 63.5147 285.812 63.8555C285.5 64.1354 285.359 64.4606 285.388 64.8311C285.417 65.2016 285.599 65.6516 285.934 66.181C286.473 66.9895 286.733 67.6788 286.714 68.2488C286.699 68.8215 286.406 69.3634 285.836 69.8745C285.236 70.413 284.545 70.6866 283.765 70.6952C282.988 70.7008 282.24 70.4307 281.521 69.885C281.06 69.535 280.727 69.1275 280.522 68.6625C280.323 68.1973 280.281 67.7271 280.396 67.252C280.517 66.7766 280.798 66.3411 281.239 65.9456L282.241 66.7062C281.783 67.117 281.563 67.5398 281.58 67.9746C281.602 68.4123 281.848 68.8102 282.32 69.1685C282.759 69.502 283.195 69.6585 283.627 69.638C284.058 69.6174 284.456 69.4444 284.819 69.1189Z" fill="black"/>
<path d="M297.387 71.7968L295.457 70.0274L288.609 75.6696L287.686 74.8241L294.535 69.182L292.61 67.4173L293.443 66.7305L298.22 71.11L297.387 71.7968Z" fill="black"/>
<path d="M297.6 79.1897L296.428 77.8899L293.217 80.3195L292.375 79.3853L300.312 73.3793L302.18 75.4508C302.833 76.1752 303.123 76.8775 303.052 77.5578C302.984 78.2354 302.56 78.8698 301.779 79.4611C301.288 79.8323 300.768 80.0553 300.218 80.1299C299.674 80.2052 299.143 80.1285 298.625 79.8998L296.542 83.885L296.477 83.9345L295.575 82.9343L297.6 79.1897ZM297.284 77.2423L298.3 78.3694C298.651 78.7587 299.065 78.9666 299.541 78.9933C300.021 79.0233 300.486 78.8679 300.936 78.5269C301.954 77.7569 302.075 76.942 301.3 76.0823L300.293 74.9653L297.284 77.2423Z" fill="black"/>
<path d="M302.719 88.0318L300.728 85.3207L298.135 86.1759L297.374 85.1399L307.457 82.062L308.092 82.9271L301.808 91.1792L301.048 90.1433L302.719 88.0318ZM301.811 84.9708L303.417 87.1584L306.334 83.4873L301.811 84.9708Z" fill="black"/>
<path d="M313.391 93.4727L312.062 91.2169L304.557 95.9499L303.922 94.872L311.427 90.139L310.102 87.889L311.016 87.3129L314.305 92.8966L313.391 93.4727Z" fill="black"/>
<path d="M312.944 102.573L311.447 99.3869L308.391 101.149L310.136 104.861L309.206 105.397L306.929 100.553L315.551 95.5805L317.799 100.363L316.863 100.902L315.148 97.2523L312.376 98.8507L313.874 102.037L312.944 102.573Z" fill="black"/>
<path d="M313.175 112.991L312.858 112.912C311.996 112.66 311.36 111.963 310.951 110.822C310.588 109.81 310.618 108.849 311.04 107.941C311.468 107.034 312.257 106.273 313.408 105.656L315.14 104.75C316.376 104.103 317.395 103.882 318.196 104.084C319.003 104.288 319.594 104.914 319.97 105.961C320.289 106.853 320.305 107.673 320.017 108.42C319.73 109.171 319.161 109.799 318.311 110.305L317.889 109.127C318.422 108.793 318.791 108.406 318.998 107.967C319.211 107.529 319.216 107.03 319.015 106.468C318.773 105.794 318.388 105.41 317.86 105.314C317.336 105.216 316.617 105.399 315.704 105.861L313.905 106.802C313.016 107.266 312.399 107.803 312.051 108.413C311.708 109.02 311.657 109.661 311.898 110.334C312.126 110.969 312.444 111.376 312.854 111.554L313.067 111.649L315.103 110.584L314.489 108.873L315.434 108.378L316.47 111.268L313.175 112.991Z" fill="black"/>
<path d="M317.851 116.878L322.875 116.731L323.223 118.103L316.877 118.009L313.516 119.585L313.209 118.372L316.57 116.796L321.526 111.404L321.875 112.782L317.851 116.878Z" fill="black"/>
<path d="M195.782 326.981C195.706 325.907 195.897 325.014 196.354 324.303C196.808 323.592 197.512 323.1 198.467 322.826C199.426 322.551 200.234 322.708 200.89 323.297C201.547 323.891 201.954 324.832 202.111 326.122L202.328 327.913C202.484 329.198 202.318 330.296 201.831 331.209C201.339 332.122 200.591 332.723 199.588 333.01C198.664 333.275 197.915 333.193 197.341 332.763C196.764 332.338 196.389 331.601 196.216 330.55L197.431 330.202C197.582 330.992 197.816 331.519 198.134 331.784C198.451 332.049 198.893 332.1 199.458 331.938C200.111 331.751 200.58 331.343 200.866 330.713C201.153 330.088 201.235 329.266 201.111 328.248L200.891 326.436C200.769 325.436 200.514 324.716 200.125 324.275C199.732 323.835 199.222 323.705 198.595 323.885C197.969 324.064 197.537 324.354 197.3 324.755C197.063 325.155 196.962 325.781 196.998 326.632L195.782 326.981Z" fill="black"/>
<path d="M188.08 335.325L187.52 328.272C187.455 327.33 187.665 326.544 188.151 325.913C188.638 325.283 189.354 324.879 190.299 324.702C191.266 324.52 192.026 324.641 192.578 325.063C193.13 325.49 193.449 326.184 193.534 327.145L194.094 334.198L192.871 334.427L192.315 327.422C192.262 326.754 192.083 326.281 191.779 326.001C191.471 325.727 191.006 325.648 190.383 325.765C189.756 325.882 189.317 326.13 189.065 326.51C188.809 326.894 188.708 327.42 188.761 328.088L189.317 335.093L188.08 335.325Z" fill="black"/>
<path d="M183.564 326.841L179.677 327.204L179.635 326.131L184.774 325.652L185.167 335.597L183.915 335.714L183.564 326.841Z" fill="black"/>
<path d="M171.221 335.027H173.839V326.154H175.09V335.027H177.702V336.107H171.221V335.027Z" fill="black"/>
<path d="M162.342 335.253L162.632 328.183C162.68 327.242 162.983 326.53 163.54 326.05C164.097 325.569 164.854 325.375 165.811 325.468C166.791 325.563 167.529 325.895 168.025 326.464C168.52 327.038 168.753 327.808 168.722 328.774L168.431 335.844L167.193 335.723L167.482 328.702C167.509 328.033 167.389 327.518 167.122 327.159C166.849 326.803 166.398 326.595 165.767 326.533C165.132 326.472 164.668 326.591 164.373 326.892C164.073 327.196 163.91 327.683 163.882 328.353L163.594 335.374L162.342 335.253Z" fill="black"/>
<path d="M157.027 328.206L158.745 328.54L159.076 324.528L160.311 324.768L159.492 334.688L156.754 334.154C155.797 333.968 155.093 333.572 154.643 332.967C154.193 332.367 154.008 331.579 154.089 330.603C154.139 329.989 154.318 329.48 154.624 329.073C154.925 328.67 155.329 328.401 155.836 328.264L154.292 323.678L154.299 323.597L155.621 323.854L157.027 328.206ZM158.657 329.61L157.167 329.32C156.653 329.219 156.229 329.308 155.898 329.585C155.561 329.86 155.37 330.28 155.323 330.843C155.218 332.115 155.734 332.862 156.87 333.083L158.346 333.371L158.657 329.61Z" fill="black"/>
<path d="M146.891 326.055L150.271 327.037L150.702 323.536L146.764 322.392L146.895 321.327L152.035 322.82L150.819 332.699L145.744 331.224L145.876 330.152L149.749 331.278L150.14 328.102L146.759 327.12L146.891 326.055Z" fill="black"/>
</svg>
